solid stl
  facet normal 0 0 0
    outer loop
   vertex -9.14 13.41 0.326
   vertex -9.14 13.74 0.326
   vertex -9.02 13.41 0.326
  endloop
 endfacet
  facet normal 0 0 0
    outer loop
   vertex -9.02 13.41 0.326
   vertex -9.14 13.74 0.326
   vertex -8.87 13.74 0.326
  endloop
 endfacet
  facet normal 0 0 0
    outer loop
   vertex -8.87 13.165 0.326
   vertex -9.02 13.41 0.326
   vertex -8.87 13.74 0.326
  endloop
 endfacet
  facet normal 0 0 0
    outer loop
   vertex -9.02 12.59 0.326
   vertex -8.87 13.165 0.326
   vertex -8.87 12.59 0.326
  endloop
 endfacet
  facet normal 0 0 0
    outer loop
   vertex -9.02 12.59 0.326
   vertex -9.02 13.41 0.326
   vertex -8.87 13.165 0.326
  endloop
 endfacet
  facet normal 0 0 0
    outer loop
   vertex -7.47 13.41 0.326
   vertex -7.35 13.74 0.326
   vertex -7.35 13.41 0.326
  endloop
 endfacet
  facet normal 0 0 0
    outer loop
   vertex -7.47 13.41 0.326
   vertex -7.62 13.74 0.326
   vertex -7.35 13.74 0.326
  endloop
 endfacet
  facet normal 0 0 0
    outer loop
   vertex -7.62 13.165 0.326
   vertex -7.62 13.74 0.326
   vertex -7.47 13.41 0.326
  endloop
 endfacet
  facet normal 0 0 0
    outer loop
   vertex -7.62 12.59 0.326
   vertex -7.62 13.165 0.326
   vertex -7.47 12.59 0.326
  endloop
 endfacet
  facet normal 0 0 0
    outer loop
   vertex -7.47 12.59 0.326
   vertex -7.62 13.165 0.326
   vertex -7.47 13.41 0.326
  endloop
 endfacet
  facet normal 0 0 0
    outer loop
   vertex -6.34 13.41 0.326
   vertex -6.34 13.74 0.326
   vertex -6.22 13.41 0.326
  endloop
 endfacet
  facet normal 0 0 0
    outer loop
   vertex -6.22 13.41 0.326
   vertex -6.34 13.74 0.326
   vertex -6.07 13.74 0.326
  endloop
 endfacet
  facet normal 0 0 0
    outer loop
   vertex -6.07 13.165 0.326
   vertex -6.22 13.41 0.326
   vertex -6.07 13.74 0.326
  endloop
 endfacet
  facet normal 0 0 0
    outer loop
   vertex -6.22 12.59 0.326
   vertex -6.07 13.165 0.326
   vertex -6.07 12.59 0.326
  endloop
 endfacet
  facet normal 0 0 0
    outer loop
   vertex -6.22 12.59 0.326
   vertex -6.22 13.41 0.326
   vertex -6.07 13.165 0.326
  endloop
 endfacet
  facet normal 0 0 0
    outer loop
   vertex -9.02 13.41 0.506
   vertex -9.09 13.49 0.506
   vertex -9.14 13.41 0.506
  endloop
 endfacet
  facet normal 0 0 0
    outer loop
   vertex -8.92 13.49 0.506
   vertex -9.09 13.49 0.506
   vertex -9.02 13.41 0.506
  endloop
 endfacet
  facet normal 0 0 0
    outer loop
   vertex -8.87 13.74 0.506
   vertex -9.14 13.74 0.506
   vertex -8.92 13.66 0.506
  endloop
 endfacet
  facet normal 0 0 0
    outer loop
   vertex -8.92 13.66 0.506
   vertex -9.14 13.74 0.506
   vertex -9.09 13.66 0.506
  endloop
 endfacet
  facet normal 0 0 0
    outer loop
   vertex -9.09 13.49 0.506
   vertex -9.14 13.575 0.506
   vertex -9.14 13.41 0.506
  endloop
 endfacet
  facet normal 0 0 0
    outer loop
   vertex -9.09 13.66 0.506
   vertex -9.14 13.74 0.506
   vertex -9.14 13.575 0.506
  endloop
 endfacet
  facet normal 0 0 0
    outer loop
   vertex -9.09 13.66 0.506
   vertex -9.14 13.575 0.506
   vertex -9.09 13.49 0.506
  endloop
 endfacet
  facet normal 0 0 0
    outer loop
   vertex -8.87 12.59 0.506
   vertex -8.87 13.165 0.506
   vertex -9.02 12.59 0.506
  endloop
 endfacet
  facet normal 0 0 0
    outer loop
   vertex -8.87 13.165 0.506
   vertex -9.02 13.41 0.506
   vertex -9.02 12.59 0.506
  endloop
 endfacet
  facet normal 0 0 0
    outer loop
   vertex -8.87 13.453 0.506
   vertex -8.92 13.49 0.506
   vertex -9.02 13.41 0.506
  endloop
 endfacet
  facet normal 0 0 0
    outer loop
   vertex -8.87 13.453 0.506
   vertex -9.02 13.41 0.506
   vertex -8.87 13.165 0.506
  endloop
 endfacet
  facet normal 0 0 0
    outer loop
   vertex -8.87 13.74 0.506
   vertex -8.92 13.66 0.506
   vertex -8.87 13.596 0.506
  endloop
 endfacet
  facet normal 0 0 0
    outer loop
   vertex -8.87 13.596 0.506
   vertex -8.92 13.49 0.506
   vertex -8.87 13.453 0.506
  endloop
 endfacet
  facet normal 0 0 0
    outer loop
   vertex -8.87 13.596 0.506
   vertex -8.92 13.66 0.506
   vertex -8.92 13.49 0.506
  endloop
 endfacet
  facet normal 0 0 0
    outer loop
   vertex -7.35 13.41 0.506
   vertex -7.4 13.49 0.506
   vertex -7.47 13.41 0.506
  endloop
 endfacet
  facet normal 0 0 0
    outer loop
   vertex -7.4 13.49 0.506
   vertex -7.57 13.49 0.506
   vertex -7.47 13.41 0.506
  endloop
 endfacet
  facet normal 0 0 0
    outer loop
   vertex -7.35 13.74 0.506
   vertex -7.62 13.74 0.506
   vertex -7.4 13.66 0.506
  endloop
 endfacet
  facet normal 0 0 0
    outer loop
   vertex -7.4 13.66 0.506
   vertex -7.62 13.74 0.506
   vertex -7.57 13.66 0.506
  endloop
 endfacet
  facet normal 0 0 0
    outer loop
   vertex -7.47 12.59 0.506
   vertex -7.62 13.165 0.506
   vertex -7.62 12.59 0.506
  endloop
 endfacet
  facet normal 0 0 0
    outer loop
   vertex -7.47 13.41 0.506
   vertex -7.62 13.165 0.506
   vertex -7.47 12.59 0.506
  endloop
 endfacet
  facet normal 0 0 0
    outer loop
   vertex -7.35 13.575 0.506
   vertex -7.4 13.49 0.506
   vertex -7.35 13.41 0.506
  endloop
 endfacet
  facet normal 0 0 0
    outer loop
   vertex -7.35 13.74 0.506
   vertex -7.4 13.66 0.506
   vertex -7.35 13.575 0.506
  endloop
 endfacet
  facet normal 0 0 0
    outer loop
   vertex -7.35 13.575 0.506
   vertex -7.4 13.66 0.506
   vertex -7.4 13.49 0.506
  endloop
 endfacet
  facet normal 0 0 0
    outer loop
   vertex -7.57 13.49 0.506
   vertex -7.62 13.453 0.506
   vertex -7.47 13.41 0.506
  endloop
 endfacet
  facet normal 0 0 0
    outer loop
   vertex -7.47 13.41 0.506
   vertex -7.62 13.453 0.506
   vertex -7.62 13.165 0.506
  endloop
 endfacet
  facet normal 0 0 0
    outer loop
   vertex -7.57 13.66 0.506
   vertex -7.62 13.74 0.506
   vertex -7.62 13.596 0.506
  endloop
 endfacet
  facet normal 0 0 0
    outer loop
   vertex -7.57 13.66 0.506
   vertex -7.62 13.596 0.506
   vertex -7.57 13.49 0.506
  endloop
 endfacet
  facet normal 0 0 0
    outer loop
   vertex -7.57 13.49 0.506
   vertex -7.62 13.596 0.506
   vertex -7.62 13.453 0.506
  endloop
 endfacet
  facet normal 0 0 0
    outer loop
   vertex -6.22 13.41 0.506
   vertex -6.29 13.49 0.506
   vertex -6.34 13.41 0.506
  endloop
 endfacet
  facet normal 0 0 0
    outer loop
   vertex -6.12 13.49 0.506
   vertex -6.29 13.49 0.506
   vertex -6.22 13.41 0.506
  endloop
 endfacet
  facet normal 0 0 0
    outer loop
   vertex -6.07 13.74 0.506
   vertex -6.34 13.74 0.506
   vertex -6.12 13.66 0.506
  endloop
 endfacet
  facet normal 0 0 0
    outer loop
   vertex -6.12 13.66 0.506
   vertex -6.34 13.74 0.506
   vertex -6.29 13.66 0.506
  endloop
 endfacet
  facet normal 0 0 0
    outer loop
   vertex -6.29 13.49 0.506
   vertex -6.34 13.575 0.506
   vertex -6.34 13.41 0.506
  endloop
 endfacet
  facet normal 0 0 0
    outer loop
   vertex -6.29 13.66 0.506
   vertex -6.34 13.74 0.506
   vertex -6.34 13.575 0.506
  endloop
 endfacet
  facet normal 0 0 0
    outer loop
   vertex -6.29 13.66 0.506
   vertex -6.34 13.575 0.506
   vertex -6.29 13.49 0.506
  endloop
 endfacet
  facet normal 0 0 0
    outer loop
   vertex -6.07 12.59 0.506
   vertex -6.07 13.165 0.506
   vertex -6.22 12.59 0.506
  endloop
 endfacet
  facet normal 0 0 0
    outer loop
   vertex -6.07 13.165 0.506
   vertex -6.22 13.41 0.506
   vertex -6.22 12.59 0.506
  endloop
 endfacet
  facet normal 0 0 0
    outer loop
   vertex -6.07 13.453 0.506
   vertex -6.12 13.49 0.506
   vertex -6.22 13.41 0.506
  endloop
 endfacet
  facet normal 0 0 0
    outer loop
   vertex -6.07 13.453 0.506
   vertex -6.22 13.41 0.506
   vertex -6.07 13.165 0.506
  endloop
 endfacet
  facet normal 0 0 0
    outer loop
   vertex -6.07 13.74 0.506
   vertex -6.12 13.66 0.506
   vertex -6.07 13.596 0.506
  endloop
 endfacet
  facet normal 0 0 0
    outer loop
   vertex -6.07 13.596 0.506
   vertex -6.12 13.49 0.506
   vertex -6.07 13.453 0.506
  endloop
 endfacet
  facet normal 0 0 0
    outer loop
   vertex -6.07 13.596 0.506
   vertex -6.12 13.66 0.506
   vertex -6.12 13.49 0.506
  endloop
 endfacet
  facet normal 0 0 0
    outer loop
   vertex -9.09 13.66 0.506
   vertex -9.09 13.66 0.627
   vertex -8.92 13.66 0.627
  endloop
 endfacet
  facet normal 0 0 0
    outer loop
   vertex -9.09 13.66 0.506
   vertex -8.92 13.66 0.627
   vertex -8.92 13.66 0.506
  endloop
 endfacet
  facet normal 0 0 0
    outer loop
   vertex -7.57 13.66 0.506
   vertex -7.57 13.66 0.627
   vertex -7.4 13.66 0.627
  endloop
 endfacet
  facet normal 0 0 0
    outer loop
   vertex -7.57 13.66 0.506
   vertex -7.4 13.66 0.627
   vertex -7.4 13.66 0.506
  endloop
 endfacet
  facet normal 0 0 0
    outer loop
   vertex -6.29 13.66 0.506
   vertex -6.29 13.66 0.627
   vertex -6.12 13.66 0.627
  endloop
 endfacet
  facet normal 0 0 0
    outer loop
   vertex -6.29 13.66 0.506
   vertex -6.12 13.66 0.627
   vertex -6.12 13.66 0.506
  endloop
 endfacet
  facet normal 0 0 0
    outer loop
   vertex -6.12 13.49 0.506
   vertex -6.12 13.49 0.627
   vertex -6.29 13.49 0.627
  endloop
 endfacet
  facet normal 0 0 0
    outer loop
   vertex -6.12 13.49 0.506
   vertex -6.29 13.49 0.627
   vertex -6.29 13.49 0.506
  endloop
 endfacet
  facet normal 0 0 0
    outer loop
   vertex -7.4 13.49 0.506
   vertex -7.4 13.49 0.627
   vertex -7.57 13.49 0.627
  endloop
 endfacet
  facet normal 0 0 0
    outer loop
   vertex -7.4 13.49 0.506
   vertex -7.57 13.49 0.627
   vertex -7.57 13.49 0.506
  endloop
 endfacet
  facet normal 0 0 0
    outer loop
   vertex -8.92 13.49 0.506
   vertex -8.92 13.49 0.627
   vertex -9.09 13.49 0.627
  endloop
 endfacet
  facet normal 0 0 0
    outer loop
   vertex -8.92 13.49 0.506
   vertex -9.09 13.49 0.627
   vertex -9.09 13.49 0.506
  endloop
 endfacet
  facet normal 0 0 0
    outer loop
   vertex -9.09 13.49 0.506
   vertex -9.09 13.49 0.627
   vertex -9.09 13.66 0.627
  endloop
 endfacet
  facet normal 0 0 0
    outer loop
   vertex -9.09 13.49 0.506
   vertex -9.09 13.66 0.627
   vertex -9.09 13.66 0.506
  endloop
 endfacet
  facet normal 0 0 0
    outer loop
   vertex -8.92 13.66 0.506
   vertex -8.92 13.66 0.627
   vertex -8.92 13.49 0.627
  endloop
 endfacet
  facet normal 0 0 0
    outer loop
   vertex -8.92 13.66 0.506
   vertex -8.92 13.49 0.627
   vertex -8.92 13.49 0.506
  endloop
 endfacet
  facet normal 0 0 0
    outer loop
   vertex -7.57 13.49 0.506
   vertex -7.57 13.49 0.627
   vertex -7.57 13.66 0.627
  endloop
 endfacet
  facet normal 0 0 0
    outer loop
   vertex -7.57 13.49 0.506
   vertex -7.57 13.66 0.627
   vertex -7.57 13.66 0.506
  endloop
 endfacet
  facet normal 0 0 0
    outer loop
   vertex -7.4 13.66 0.506
   vertex -7.4 13.66 0.627
   vertex -7.4 13.49 0.627
  endloop
 endfacet
  facet normal 0 0 0
    outer loop
   vertex -7.4 13.66 0.506
   vertex -7.4 13.49 0.627
   vertex -7.4 13.49 0.506
  endloop
 endfacet
  facet normal 0 0 0
    outer loop
   vertex -6.29 13.49 0.506
   vertex -6.29 13.49 0.627
   vertex -6.29 13.66 0.627
  endloop
 endfacet
  facet normal 0 0 0
    outer loop
   vertex -6.29 13.49 0.506
   vertex -6.29 13.66 0.627
   vertex -6.29 13.66 0.506
  endloop
 endfacet
  facet normal 0 0 0
    outer loop
   vertex -6.12 13.66 0.506
   vertex -6.12 13.66 0.627
   vertex -6.12 13.49 0.627
  endloop
 endfacet
  facet normal 0 0 0
    outer loop
   vertex -6.12 13.66 0.506
   vertex -6.12 13.49 0.627
   vertex -6.12 13.49 0.506
  endloop
 endfacet
  facet normal 0 0 0
    outer loop
   vertex -9.17 13.49 0.936
   vertex -9.17 13.66 0.936
   vertex -9.09 13.66 0.936
  endloop
 endfacet
  facet normal 0 0 0
    outer loop
   vertex -9.17 13.49 0.936
   vertex -9.09 13.66 0.936
   vertex -9.09 13.49 0.936
  endloop
 endfacet
  facet normal 0 0 0
    outer loop
   vertex -8.92 13.49 0.936
   vertex -8.92 13.66 0.936
   vertex -8.84 13.66 0.936
  endloop
 endfacet
  facet normal 0 0 0
    outer loop
   vertex -8.92 13.49 0.936
   vertex -8.84 13.66 0.936
   vertex -8.84 13.49 0.936
  endloop
 endfacet
  facet normal 0 0 0
    outer loop
   vertex -7.65 13.49 0.936
   vertex -7.65 13.66 0.936
   vertex -7.57 13.66 0.936
  endloop
 endfacet
  facet normal 0 0 0
    outer loop
   vertex -7.65 13.49 0.936
   vertex -7.57 13.66 0.936
   vertex -7.57 13.49 0.936
  endloop
 endfacet
  facet normal 0 0 0
    outer loop
   vertex -7.4 13.49 0.936
   vertex -7.4 13.66 0.936
   vertex -7.32 13.66 0.936
  endloop
 endfacet
  facet normal 0 0 0
    outer loop
   vertex -7.4 13.49 0.936
   vertex -7.32 13.66 0.936
   vertex -7.32 13.49 0.936
  endloop
 endfacet
  facet normal 0 0 0
    outer loop
   vertex -6.37 13.49 0.936
   vertex -6.37 13.66 0.936
   vertex -6.29 13.66 0.936
  endloop
 endfacet
  facet normal 0 0 0
    outer loop
   vertex -6.37 13.49 0.936
   vertex -6.29 13.66 0.936
   vertex -6.29 13.49 0.936
  endloop
 endfacet
  facet normal 0 0 0
    outer loop
   vertex -6.12 13.49 0.936
   vertex -6.12 13.66 0.936
   vertex -6.04 13.66 0.936
  endloop
 endfacet
  facet normal 0 0 0
    outer loop
   vertex -6.12 13.49 0.936
   vertex -6.04 13.66 0.936
   vertex -6.04 13.49 0.936
  endloop
 endfacet
  facet normal 0 0 0
    outer loop
   vertex -9.09 13.66 0.627
   vertex -9.09 13.66 0.936
   vertex -8.92 13.66 0.936
  endloop
 endfacet
  facet normal 0 0 0
    outer loop
   vertex -9.09 13.66 0.627
   vertex -8.92 13.66 0.936
   vertex -8.92 13.66 0.627
  endloop
 endfacet
  facet normal 0 0 0
    outer loop
   vertex -7.57 13.66 0.627
   vertex -7.57 13.66 0.936
   vertex -7.4 13.66 0.936
  endloop
 endfacet
  facet normal 0 0 0
    outer loop
   vertex -7.57 13.66 0.627
   vertex -7.4 13.66 0.936
   vertex -7.4 13.66 0.627
  endloop
 endfacet
  facet normal 0 0 0
    outer loop
   vertex -6.29 13.66 0.627
   vertex -6.29 13.66 0.936
   vertex -6.12 13.66 0.936
  endloop
 endfacet
  facet normal 0 0 0
    outer loop
   vertex -6.29 13.66 0.627
   vertex -6.12 13.66 0.936
   vertex -6.12 13.66 0.627
  endloop
 endfacet
  facet normal 0 0 0
    outer loop
   vertex -9.09 13.49 0.627
   vertex -9.09 13.49 0.936
   vertex -9.09 13.66 0.936
  endloop
 endfacet
  facet normal 0 0 0
    outer loop
   vertex -9.09 13.49 0.627
   vertex -9.09 13.66 0.936
   vertex -9.09 13.66 0.627
  endloop
 endfacet
  facet normal 0 0 0
    outer loop
   vertex -6.12 13.49 0.627
   vertex -6.12 13.49 0.936
   vertex -6.29 13.49 0.936
  endloop
 endfacet
  facet normal 0 0 0
    outer loop
   vertex -6.12 13.49 0.627
   vertex -6.29 13.49 0.936
   vertex -6.29 13.49 0.627
  endloop
 endfacet
  facet normal 0 0 0
    outer loop
   vertex -7.4 13.49 0.627
   vertex -7.4 13.49 0.936
   vertex -7.57 13.49 0.936
  endloop
 endfacet
  facet normal 0 0 0
    outer loop
   vertex -7.4 13.49 0.627
   vertex -7.57 13.49 0.936
   vertex -7.57 13.49 0.627
  endloop
 endfacet
  facet normal 0 0 0
    outer loop
   vertex -8.92 13.49 0.627
   vertex -8.92 13.49 0.936
   vertex -9.09 13.49 0.936
  endloop
 endfacet
  facet normal 0 0 0
    outer loop
   vertex -8.92 13.49 0.627
   vertex -9.09 13.49 0.936
   vertex -9.09 13.49 0.627
  endloop
 endfacet
  facet normal 0 0 0
    outer loop
   vertex -8.92 13.66 0.627
   vertex -8.92 13.66 0.936
   vertex -8.92 13.49 0.936
  endloop
 endfacet
  facet normal 0 0 0
    outer loop
   vertex -8.92 13.66 0.627
   vertex -8.92 13.49 0.936
   vertex -8.92 13.49 0.627
  endloop
 endfacet
  facet normal 0 0 0
    outer loop
   vertex -7.57 13.49 0.627
   vertex -7.57 13.49 0.936
   vertex -7.57 13.66 0.936
  endloop
 endfacet
  facet normal 0 0 0
    outer loop
   vertex -7.57 13.49 0.627
   vertex -7.57 13.66 0.936
   vertex -7.57 13.66 0.627
  endloop
 endfacet
  facet normal 0 0 0
    outer loop
   vertex -7.4 13.66 0.627
   vertex -7.4 13.66 0.936
   vertex -7.4 13.49 0.936
  endloop
 endfacet
  facet normal 0 0 0
    outer loop
   vertex -7.4 13.66 0.627
   vertex -7.4 13.49 0.936
   vertex -7.4 13.49 0.627
  endloop
 endfacet
  facet normal 0 0 0
    outer loop
   vertex -6.29 13.49 0.627
   vertex -6.29 13.49 0.936
   vertex -6.29 13.66 0.936
  endloop
 endfacet
  facet normal 0 0 0
    outer loop
   vertex -6.29 13.49 0.627
   vertex -6.29 13.66 0.936
   vertex -6.29 13.66 0.627
  endloop
 endfacet
  facet normal 0 0 0
    outer loop
   vertex -6.12 13.66 0.627
   vertex -6.12 13.66 0.936
   vertex -6.12 13.49 0.936
  endloop
 endfacet
  facet normal 0 0 0
    outer loop
   vertex -6.12 13.66 0.627
   vertex -6.12 13.49 0.936
   vertex -6.12 13.49 0.627
  endloop
 endfacet
  facet normal 0 0 0
    outer loop
   vertex -9.09 13.66 1.036
   vertex -9.17 13.66 1.036
   vertex -9.17 13.49 1.036
  endloop
 endfacet
  facet normal 0 0 0
    outer loop
   vertex -9.09 13.49 1.036
   vertex -9.09 13.66 1.036
   vertex -9.17 13.49 1.036
  endloop
 endfacet
  facet normal 0 0 0
    outer loop
   vertex -8.84 13.66 1.036
   vertex -8.92 13.66 1.036
   vertex -8.92 13.49 1.036
  endloop
 endfacet
  facet normal 0 0 0
    outer loop
   vertex -8.84 13.49 1.036
   vertex -8.84 13.66 1.036
   vertex -8.92 13.49 1.036
  endloop
 endfacet
  facet normal 0 0 0
    outer loop
   vertex -7.57 13.66 1.036
   vertex -7.65 13.66 1.036
   vertex -7.65 13.49 1.036
  endloop
 endfacet
  facet normal 0 0 0
    outer loop
   vertex -7.57 13.49 1.036
   vertex -7.57 13.66 1.036
   vertex -7.65 13.49 1.036
  endloop
 endfacet
  facet normal 0 0 0
    outer loop
   vertex -7.32 13.66 1.036
   vertex -7.4 13.66 1.036
   vertex -7.4 13.49 1.036
  endloop
 endfacet
  facet normal 0 0 0
    outer loop
   vertex -7.32 13.49 1.036
   vertex -7.32 13.66 1.036
   vertex -7.4 13.49 1.036
  endloop
 endfacet
  facet normal 0 0 0
    outer loop
   vertex -6.29 13.66 1.036
   vertex -6.37 13.66 1.036
   vertex -6.37 13.49 1.036
  endloop
 endfacet
  facet normal 0 0 0
    outer loop
   vertex -6.29 13.49 1.036
   vertex -6.29 13.66 1.036
   vertex -6.37 13.49 1.036
  endloop
 endfacet
  facet normal 0 0 0
    outer loop
   vertex -6.04 13.66 1.036
   vertex -6.12 13.66 1.036
   vertex -6.12 13.49 1.036
  endloop
 endfacet
  facet normal 0 0 0
    outer loop
   vertex -6.04 13.49 1.036
   vertex -6.04 13.66 1.036
   vertex -6.12 13.49 1.036
  endloop
 endfacet
  facet normal 0 0 0
    outer loop
   vertex -6.04 13.49 0.936
   vertex -6.04 13.49 1.036
   vertex -6.12 13.49 1.036
  endloop
 endfacet
  facet normal 0 0 0
    outer loop
   vertex -6.12 13.49 1.036
   vertex -6.12 13.49 1.111
   vertex -6.29 13.49 1.111
  endloop
 endfacet
  facet normal 0 0 0
    outer loop
   vertex -6.04 13.49 0.936
   vertex -6.12 13.49 1.036
   vertex -6.29 13.49 1.036
  endloop
 endfacet
  facet normal 0 0 0
    outer loop
   vertex -6.12 13.49 1.036
   vertex -6.29 13.49 1.111
   vertex -6.29 13.49 1.036
  endloop
 endfacet
  facet normal 0 0 0
    outer loop
   vertex -6.04 13.49 0.936
   vertex -6.29 13.49 1.036
   vertex -6.37 13.49 0.936
  endloop
 endfacet
  facet normal 0 0 0
    outer loop
   vertex -6.37 13.49 0.936
   vertex -6.29 13.49 1.036
   vertex -6.37 13.49 1.036
  endloop
 endfacet
  facet normal 0 0 0
    outer loop
   vertex -7.32 13.49 0.936
   vertex -7.32 13.49 1.036
   vertex -7.4 13.49 1.036
  endloop
 endfacet
  facet normal 0 0 0
    outer loop
   vertex -7.4 13.49 1.036
   vertex -7.4 13.49 1.111
   vertex -7.57 13.49 1.111
  endloop
 endfacet
  facet normal 0 0 0
    outer loop
   vertex -7.32 13.49 0.936
   vertex -7.4 13.49 1.036
   vertex -7.57 13.49 1.036
  endloop
 endfacet
  facet normal 0 0 0
    outer loop
   vertex -7.4 13.49 1.036
   vertex -7.57 13.49 1.111
   vertex -7.57 13.49 1.036
  endloop
 endfacet
  facet normal 0 0 0
    outer loop
   vertex -7.32 13.49 0.936
   vertex -7.57 13.49 1.036
   vertex -7.65 13.49 0.936
  endloop
 endfacet
  facet normal 0 0 0
    outer loop
   vertex -7.65 13.49 0.936
   vertex -7.57 13.49 1.036
   vertex -7.65 13.49 1.036
  endloop
 endfacet
  facet normal 0 0 0
    outer loop
   vertex -8.84 13.49 0.936
   vertex -8.84 13.49 1.036
   vertex -8.92 13.49 1.036
  endloop
 endfacet
  facet normal 0 0 0
    outer loop
   vertex -8.92 13.49 1.036
   vertex -8.92 13.49 1.111
   vertex -9.09 13.49 1.111
  endloop
 endfacet
  facet normal 0 0 0
    outer loop
   vertex -8.84 13.49 0.936
   vertex -8.92 13.49 1.036
   vertex -9.09 13.49 1.036
  endloop
 endfacet
  facet normal 0 0 0
    outer loop
   vertex -8.92 13.49 1.036
   vertex -9.09 13.49 1.111
   vertex -9.09 13.49 1.036
  endloop
 endfacet
  facet normal 0 0 0
    outer loop
   vertex -8.84 13.49 0.936
   vertex -9.09 13.49 1.036
   vertex -9.17 13.49 0.936
  endloop
 endfacet
  facet normal 0 0 0
    outer loop
   vertex -9.17 13.49 0.936
   vertex -9.09 13.49 1.036
   vertex -9.17 13.49 1.036
  endloop
 endfacet
  facet normal 0 0 0
    outer loop
   vertex -9.17 13.49 0.936
   vertex -9.17 13.49 1.036
   vertex -9.17 13.66 1.036
  endloop
 endfacet
  facet normal 0 0 0
    outer loop
   vertex -9.17 13.49 0.936
   vertex -9.17 13.66 1.036
   vertex -9.17 13.66 0.936
  endloop
 endfacet
  facet normal 0 0 0
    outer loop
   vertex -9.17 13.66 0.936
   vertex -9.17 13.66 1.036
   vertex -9.09 13.66 1.036
  endloop
 endfacet
  facet normal 0 0 0
    outer loop
   vertex -9.09 13.66 1.036
   vertex -9.09 13.66 1.111
   vertex -8.92 13.66 1.111
  endloop
 endfacet
  facet normal 0 0 0
    outer loop
   vertex -9.17 13.66 0.936
   vertex -9.09 13.66 1.036
   vertex -8.92 13.66 1.036
  endloop
 endfacet
  facet normal 0 0 0
    outer loop
   vertex -9.09 13.66 1.036
   vertex -8.92 13.66 1.111
   vertex -8.92 13.66 1.036
  endloop
 endfacet
  facet normal 0 0 0
    outer loop
   vertex -9.17 13.66 0.936
   vertex -8.92 13.66 1.036
   vertex -8.84 13.66 0.936
  endloop
 endfacet
  facet normal 0 0 0
    outer loop
   vertex -8.84 13.66 0.936
   vertex -8.92 13.66 1.036
   vertex -8.84 13.66 1.036
  endloop
 endfacet
  facet normal 0 0 0
    outer loop
   vertex -7.65 13.66 0.936
   vertex -7.65 13.66 1.036
   vertex -7.57 13.66 1.036
  endloop
 endfacet
  facet normal 0 0 0
    outer loop
   vertex -7.57 13.66 1.036
   vertex -7.57 13.66 1.111
   vertex -7.4 13.66 1.111
  endloop
 endfacet
  facet normal 0 0 0
    outer loop
   vertex -7.65 13.66 0.936
   vertex -7.57 13.66 1.036
   vertex -7.4 13.66 1.036
  endloop
 endfacet
  facet normal 0 0 0
    outer loop
   vertex -7.57 13.66 1.036
   vertex -7.4 13.66 1.111
   vertex -7.4 13.66 1.036
  endloop
 endfacet
  facet normal 0 0 0
    outer loop
   vertex -7.65 13.66 0.936
   vertex -7.4 13.66 1.036
   vertex -7.32 13.66 0.936
  endloop
 endfacet
  facet normal 0 0 0
    outer loop
   vertex -7.32 13.66 0.936
   vertex -7.4 13.66 1.036
   vertex -7.32 13.66 1.036
  endloop
 endfacet
  facet normal 0 0 0
    outer loop
   vertex -6.37 13.66 0.936
   vertex -6.37 13.66 1.036
   vertex -6.29 13.66 1.036
  endloop
 endfacet
  facet normal 0 0 0
    outer loop
   vertex -6.29 13.66 1.036
   vertex -6.29 13.66 1.111
   vertex -6.12 13.66 1.111
  endloop
 endfacet
  facet normal 0 0 0
    outer loop
   vertex -6.37 13.66 0.936
   vertex -6.29 13.66 1.036
   vertex -6.12 13.66 1.036
  endloop
 endfacet
  facet normal 0 0 0
    outer loop
   vertex -6.29 13.66 1.036
   vertex -6.12 13.66 1.111
   vertex -6.12 13.66 1.036
  endloop
 endfacet
  facet normal 0 0 0
    outer loop
   vertex -6.37 13.66 0.936
   vertex -6.12 13.66 1.036
   vertex -6.04 13.66 0.936
  endloop
 endfacet
  facet normal 0 0 0
    outer loop
   vertex -6.04 13.66 0.936
   vertex -6.12 13.66 1.036
   vertex -6.04 13.66 1.036
  endloop
 endfacet
  facet normal 0 0 0
    outer loop
   vertex -8.84 13.66 0.936
   vertex -8.84 13.66 1.036
   vertex -8.84 13.49 1.036
  endloop
 endfacet
  facet normal 0 0 0
    outer loop
   vertex -8.84 13.66 0.936
   vertex -8.84 13.49 1.036
   vertex -8.84 13.49 0.936
  endloop
 endfacet
  facet normal 0 0 0
    outer loop
   vertex -7.65 13.49 0.936
   vertex -7.65 13.49 1.036
   vertex -7.65 13.66 1.036
  endloop
 endfacet
  facet normal 0 0 0
    outer loop
   vertex -7.65 13.49 0.936
   vertex -7.65 13.66 1.036
   vertex -7.65 13.66 0.936
  endloop
 endfacet
  facet normal 0 0 0
    outer loop
   vertex -7.32 13.66 0.936
   vertex -7.32 13.66 1.036
   vertex -7.32 13.49 1.036
  endloop
 endfacet
  facet normal 0 0 0
    outer loop
   vertex -7.32 13.66 0.936
   vertex -7.32 13.49 1.036
   vertex -7.32 13.49 0.936
  endloop
 endfacet
  facet normal 0 0 0
    outer loop
   vertex -6.37 13.49 0.936
   vertex -6.37 13.49 1.036
   vertex -6.37 13.66 1.036
  endloop
 endfacet
  facet normal 0 0 0
    outer loop
   vertex -6.37 13.49 0.936
   vertex -6.37 13.66 1.036
   vertex -6.37 13.66 0.936
  endloop
 endfacet
  facet normal 0 0 0
    outer loop
   vertex -6.04 13.66 0.936
   vertex -6.04 13.66 1.036
   vertex -6.04 13.49 1.036
  endloop
 endfacet
  facet normal 0 0 0
    outer loop
   vertex -6.04 13.66 0.936
   vertex -6.04 13.49 1.036
   vertex -6.04 13.49 0.936
  endloop
 endfacet
  facet normal 0 0 0
    outer loop
   vertex -9.09 13.49 1.036
   vertex -9.09 13.49 1.111
   vertex -9.09 13.66 1.111
  endloop
 endfacet
  facet normal 0 0 0
    outer loop
   vertex -9.09 13.49 1.036
   vertex -9.09 13.66 1.111
   vertex -9.09 13.66 1.036
  endloop
 endfacet
  facet normal 0 0 0
    outer loop
   vertex -8.92 13.66 1.036
   vertex -8.92 13.66 1.111
   vertex -8.92 13.49 1.111
  endloop
 endfacet
  facet normal 0 0 0
    outer loop
   vertex -8.92 13.66 1.036
   vertex -8.92 13.49 1.111
   vertex -8.92 13.49 1.036
  endloop
 endfacet
  facet normal 0 0 0
    outer loop
   vertex -7.57 13.49 1.036
   vertex -7.57 13.49 1.111
   vertex -7.57 13.66 1.111
  endloop
 endfacet
  facet normal 0 0 0
    outer loop
   vertex -7.57 13.49 1.036
   vertex -7.57 13.66 1.111
   vertex -7.57 13.66 1.036
  endloop
 endfacet
  facet normal 0 0 0
    outer loop
   vertex -7.4 13.66 1.036
   vertex -7.4 13.66 1.111
   vertex -7.4 13.49 1.111
  endloop
 endfacet
  facet normal 0 0 0
    outer loop
   vertex -7.4 13.66 1.036
   vertex -7.4 13.49 1.111
   vertex -7.4 13.49 1.036
  endloop
 endfacet
  facet normal 0 0 0
    outer loop
   vertex -6.29 13.49 1.036
   vertex -6.29 13.49 1.111
   vertex -6.29 13.66 1.111
  endloop
 endfacet
  facet normal 0 0 0
    outer loop
   vertex -6.29 13.49 1.036
   vertex -6.29 13.66 1.111
   vertex -6.29 13.66 1.036
  endloop
 endfacet
  facet normal 0 0 0
    outer loop
   vertex -6.12 13.66 1.036
   vertex -6.12 13.66 1.111
   vertex -6.12 13.49 1.111
  endloop
 endfacet
  facet normal 0 0 0
    outer loop
   vertex -6.12 13.66 1.036
   vertex -6.12 13.49 1.111
   vertex -6.12 13.49 1.036
  endloop
 endfacet
  facet normal 0 0 0
    outer loop
   vertex -9.24 13.4 1.376
   vertex -9.09 13.49 1.376
   vertex -8.82 13.4 1.376
  endloop
 endfacet
  facet normal 0 0 0
    outer loop
   vertex -9.24 13.4 1.376
   vertex -9.24 13.75 1.376
   vertex -9.09 13.49 1.376
  endloop
 endfacet
  facet normal 0 0 0
    outer loop
   vertex -8.82 13.4 1.376
   vertex -8.92 13.49 1.376
   vertex -8.82 13.75 1.376
  endloop
 endfacet
  facet normal 0 0 0
    outer loop
   vertex -8.82 13.4 1.376
   vertex -9.09 13.49 1.376
   vertex -8.92 13.49 1.376
  endloop
 endfacet
  facet normal 0 0 0
    outer loop
   vertex -8.92 13.49 1.376
   vertex -8.92 13.66 1.376
   vertex -8.82 13.75 1.376
  endloop
 endfacet
  facet normal 0 0 0
    outer loop
   vertex -9.09 13.49 1.376
   vertex -9.24 13.75 1.376
   vertex -9.09 13.66 1.376
  endloop
 endfacet
  facet normal 0 0 0
    outer loop
   vertex -9.09 13.66 1.376
   vertex -9.24 13.75 1.376
   vertex -8.82 13.75 1.376
  endloop
 endfacet
  facet normal 0 0 0
    outer loop
   vertex -9.09 13.66 1.376
   vertex -8.82 13.75 1.376
   vertex -8.92 13.66 1.376
  endloop
 endfacet
  facet normal 0 0 0
    outer loop
   vertex -7.67 13.4 1.376
   vertex -7.67 13.75 1.376
   vertex -7.57 13.49 1.376
  endloop
 endfacet
  facet normal 0 0 0
    outer loop
   vertex -7.21 13.4 1.376
   vertex -7.4 13.49 1.376
   vertex -7.21 13.75 1.376
  endloop
 endfacet
  facet normal 0 0 0
    outer loop
   vertex -7.67 13.4 1.376
   vertex -7.4 13.49 1.376
   vertex -7.21 13.4 1.376
  endloop
 endfacet
  facet normal 0 0 0
    outer loop
   vertex -7.67 13.4 1.376
   vertex -7.57 13.49 1.376
   vertex -7.4 13.49 1.376
  endloop
 endfacet
  facet normal 0 0 0
    outer loop
   vertex -7.4 13.66 1.376
   vertex -7.67 13.75 1.376
   vertex -7.21 13.75 1.376
  endloop
 endfacet
  facet normal 0 0 0
    outer loop
   vertex -7.4 13.49 1.376
   vertex -7.4 13.66 1.376
   vertex -7.21 13.75 1.376
  endloop
 endfacet
  facet normal 0 0 0
    outer loop
   vertex -7.57 13.66 1.376
   vertex -7.67 13.75 1.376
   vertex -7.4 13.66 1.376
  endloop
 endfacet
  facet normal 0 0 0
    outer loop
   vertex -7.57 13.49 1.376
   vertex -7.67 13.75 1.376
   vertex -7.57 13.66 1.376
  endloop
 endfacet
  facet normal 0 0 0
    outer loop
   vertex -6.44 13.4 1.376
   vertex -6.29 13.49 1.376
   vertex -6.02 13.4 1.376
  endloop
 endfacet
  facet normal 0 0 0
    outer loop
   vertex -6.44 13.4 1.376
   vertex -6.44 13.75 1.376
   vertex -6.29 13.49 1.376
  endloop
 endfacet
  facet normal 0 0 0
    outer loop
   vertex -6.02 13.4 1.376
   vertex -6.12 13.49 1.376
   vertex -6.02 13.75 1.376
  endloop
 endfacet
  facet normal 0 0 0
    outer loop
   vertex -6.02 13.4 1.376
   vertex -6.29 13.49 1.376
   vertex -6.12 13.49 1.376
  endloop
 endfacet
  facet normal 0 0 0
    outer loop
   vertex -6.12 13.49 1.376
   vertex -6.12 13.66 1.376
   vertex -6.02 13.75 1.376
  endloop
 endfacet
  facet normal 0 0 0
    outer loop
   vertex -6.29 13.49 1.376
   vertex -6.44 13.75 1.376
   vertex -6.29 13.66 1.376
  endloop
 endfacet
  facet normal 0 0 0
    outer loop
   vertex -6.29 13.66 1.376
   vertex -6.44 13.75 1.376
   vertex -6.02 13.75 1.376
  endloop
 endfacet
  facet normal 0 0 0
    outer loop
   vertex -6.29 13.66 1.376
   vertex -6.02 13.75 1.376
   vertex -6.12 13.66 1.376
  endloop
 endfacet
  facet normal 0 0 0
    outer loop
   vertex -6.12 13.49 1.111
   vertex -6.12 13.49 1.376
   vertex -6.29 13.49 1.376
  endloop
 endfacet
  facet normal 0 0 0
    outer loop
   vertex -6.12 13.49 1.111
   vertex -6.29 13.49 1.376
   vertex -6.29 13.49 1.111
  endloop
 endfacet
  facet normal 0 0 0
    outer loop
   vertex -7.4 13.49 1.111
   vertex -7.4 13.49 1.376
   vertex -7.57 13.49 1.376
  endloop
 endfacet
  facet normal 0 0 0
    outer loop
   vertex -7.4 13.49 1.111
   vertex -7.57 13.49 1.376
   vertex -7.57 13.49 1.111
  endloop
 endfacet
  facet normal 0 0 0
    outer loop
   vertex -8.92 13.49 1.111
   vertex -8.92 13.49 1.376
   vertex -9.09 13.49 1.376
  endloop
 endfacet
  facet normal 0 0 0
    outer loop
   vertex -8.92 13.49 1.111
   vertex -9.09 13.49 1.376
   vertex -9.09 13.49 1.111
  endloop
 endfacet
  facet normal 0 0 0
    outer loop
   vertex -9.09 13.49 1.111
   vertex -9.09 13.49 1.376
   vertex -9.09 13.66 1.376
  endloop
 endfacet
  facet normal 0 0 0
    outer loop
   vertex -9.09 13.49 1.111
   vertex -9.09 13.66 1.376
   vertex -9.09 13.66 1.111
  endloop
 endfacet
  facet normal 0 0 0
    outer loop
   vertex -9.09 13.66 1.111
   vertex -9.09 13.66 1.376
   vertex -8.92 13.66 1.376
  endloop
 endfacet
  facet normal 0 0 0
    outer loop
   vertex -9.09 13.66 1.111
   vertex -8.92 13.66 1.376
   vertex -8.92 13.66 1.111
  endloop
 endfacet
  facet normal 0 0 0
    outer loop
   vertex -7.57 13.66 1.111
   vertex -7.57 13.66 1.376
   vertex -7.4 13.66 1.376
  endloop
 endfacet
  facet normal 0 0 0
    outer loop
   vertex -7.57 13.66 1.111
   vertex -7.4 13.66 1.376
   vertex -7.4 13.66 1.111
  endloop
 endfacet
  facet normal 0 0 0
    outer loop
   vertex -6.29 13.66 1.111
   vertex -6.29 13.66 1.376
   vertex -6.12 13.66 1.376
  endloop
 endfacet
  facet normal 0 0 0
    outer loop
   vertex -6.29 13.66 1.111
   vertex -6.12 13.66 1.376
   vertex -6.12 13.66 1.111
  endloop
 endfacet
  facet normal 0 0 0
    outer loop
   vertex -8.92 13.66 1.111
   vertex -8.92 13.66 1.376
   vertex -8.92 13.49 1.376
  endloop
 endfacet
  facet normal 0 0 0
    outer loop
   vertex -8.92 13.66 1.111
   vertex -8.92 13.49 1.376
   vertex -8.92 13.49 1.111
  endloop
 endfacet
  facet normal 0 0 0
    outer loop
   vertex -7.57 13.49 1.111
   vertex -7.57 13.49 1.376
   vertex -7.57 13.66 1.376
  endloop
 endfacet
  facet normal 0 0 0
    outer loop
   vertex -7.57 13.49 1.111
   vertex -7.57 13.66 1.376
   vertex -7.57 13.66 1.111
  endloop
 endfacet
  facet normal 0 0 0
    outer loop
   vertex -7.4 13.66 1.111
   vertex -7.4 13.66 1.376
   vertex -7.4 13.49 1.376
  endloop
 endfacet
  facet normal 0 0 0
    outer loop
   vertex -7.4 13.66 1.111
   vertex -7.4 13.49 1.376
   vertex -7.4 13.49 1.111
  endloop
 endfacet
  facet normal 0 0 0
    outer loop
   vertex -6.29 13.49 1.111
   vertex -6.29 13.49 1.376
   vertex -6.29 13.66 1.376
  endloop
 endfacet
  facet normal 0 0 0
    outer loop
   vertex -6.29 13.49 1.111
   vertex -6.29 13.66 1.376
   vertex -6.29 13.66 1.111
  endloop
 endfacet
  facet normal 0 0 0
    outer loop
   vertex -6.12 13.66 1.111
   vertex -6.12 13.66 1.376
   vertex -6.12 13.49 1.376
  endloop
 endfacet
  facet normal 0 0 0
    outer loop
   vertex -6.12 13.66 1.111
   vertex -6.12 13.49 1.376
   vertex -6.12 13.49 1.111
  endloop
 endfacet
  facet normal 0 0 0
    outer loop
   vertex -8.82 13.4 1.736
   vertex -9.105 13.5 1.736
   vertex -9.24 13.4 1.736
  endloop
 endfacet
  facet normal 0 0 0
    outer loop
   vertex -9.105 13.5 1.736
   vertex -9.24 13.75 1.736
   vertex -9.24 13.4 1.736
  endloop
 endfacet
  facet normal 0 0 0
    outer loop
   vertex -8.82 13.75 1.736
   vertex -8.955 13.5 1.736
   vertex -8.82 13.4 1.736
  endloop
 endfacet
  facet normal 0 0 0
    outer loop
   vertex -8.955 13.5 1.736
   vertex -9.105 13.5 1.736
   vertex -8.82 13.4 1.736
  endloop
 endfacet
  facet normal 0 0 0
    outer loop
   vertex -8.82 13.75 1.736
   vertex -9.24 13.75 1.736
   vertex -8.955 13.65 1.736
  endloop
 endfacet
  facet normal 0 0 0
    outer loop
   vertex -8.82 13.75 1.736
   vertex -8.955 13.65 1.736
   vertex -8.955 13.5 1.736
  endloop
 endfacet
  facet normal 0 0 0
    outer loop
   vertex -9.105 13.65 1.736
   vertex -9.24 13.75 1.736
   vertex -9.105 13.5 1.736
  endloop
 endfacet
  facet normal 0 0 0
    outer loop
   vertex -8.955 13.65 1.736
   vertex -9.24 13.75 1.736
   vertex -9.105 13.65 1.736
  endloop
 endfacet
  facet normal 0 0 0
    outer loop
   vertex -7.21 13.4 1.736
   vertex -7.495 13.5 1.736
   vertex -7.67 13.4 1.736
  endloop
 endfacet
  facet normal 0 0 0
    outer loop
   vertex -7.495 13.5 1.736
   vertex -7.67 13.75 1.736
   vertex -7.67 13.4 1.736
  endloop
 endfacet
  facet normal 0 0 0
    outer loop
   vertex -7.21 13.75 1.736
   vertex -7.345 13.5 1.736
   vertex -7.21 13.4 1.736
  endloop
 endfacet
  facet normal 0 0 0
    outer loop
   vertex -7.345 13.5 1.736
   vertex -7.495 13.5 1.736
   vertex -7.21 13.4 1.736
  endloop
 endfacet
  facet normal 0 0 0
    outer loop
   vertex -7.21 13.75 1.736
   vertex -7.345 13.65 1.736
   vertex -7.345 13.5 1.736
  endloop
 endfacet
  facet normal 0 0 0
    outer loop
   vertex -7.495 13.65 1.736
   vertex -7.67 13.75 1.736
   vertex -7.495 13.5 1.736
  endloop
 endfacet
  facet normal 0 0 0
    outer loop
   vertex -7.21 13.75 1.736
   vertex -7.67 13.75 1.736
   vertex -7.495 13.65 1.736
  endloop
 endfacet
  facet normal 0 0 0
    outer loop
   vertex -7.345 13.65 1.736
   vertex -7.21 13.75 1.736
   vertex -7.495 13.65 1.736
  endloop
 endfacet
  facet normal 0 0 0
    outer loop
   vertex -6.02 13.4 1.736
   vertex -6.305 13.5 1.736
   vertex -6.44 13.4 1.736
  endloop
 endfacet
  facet normal 0 0 0
    outer loop
   vertex -6.305 13.5 1.736
   vertex -6.44 13.75 1.736
   vertex -6.44 13.4 1.736
  endloop
 endfacet
  facet normal 0 0 0
    outer loop
   vertex -6.02 13.75 1.736
   vertex -6.155 13.5 1.736
   vertex -6.02 13.4 1.736
  endloop
 endfacet
  facet normal 0 0 0
    outer loop
   vertex -6.155 13.5 1.736
   vertex -6.305 13.5 1.736
   vertex -6.02 13.4 1.736
  endloop
 endfacet
  facet normal 0 0 0
    outer loop
   vertex -6.02 13.75 1.736
   vertex -6.44 13.75 1.736
   vertex -6.155 13.65 1.736
  endloop
 endfacet
  facet normal 0 0 0
    outer loop
   vertex -6.02 13.75 1.736
   vertex -6.155 13.65 1.736
   vertex -6.155 13.5 1.736
  endloop
 endfacet
  facet normal 0 0 0
    outer loop
   vertex -6.305 13.65 1.736
   vertex -6.44 13.75 1.736
   vertex -6.305 13.5 1.736
  endloop
 endfacet
  facet normal 0 0 0
    outer loop
   vertex -6.155 13.65 1.736
   vertex -6.44 13.75 1.736
   vertex -6.305 13.65 1.736
  endloop
 endfacet
  facet normal 0 0 0
    outer loop
   vertex -6.44 13.425 2.006
   vertex -7.21 13.725 2.006
   vertex -6.44 13.725 2.006
  endloop
 endfacet
  facet normal 0 0 0
    outer loop
   vertex -7.21 13.425 2.006
   vertex -7.21 13.725 2.006
   vertex -6.44 13.425 2.006
  endloop
 endfacet
  facet normal 0 0 0
    outer loop
   vertex -9.24 13.425 2.006
   vertex -9.24 13.725 2.006
   vertex -9.105 13.5 2.006
  endloop
 endfacet
  facet normal 0 0 0
    outer loop
   vertex -8.82 13.425 2.006
   vertex -8.955 13.5 2.006
   vertex -8.82 13.725 2.006
  endloop
 endfacet
  facet normal 0 0 0
    outer loop
   vertex -8.955 13.5 2.006
   vertex -8.955 13.65 2.006
   vertex -8.82 13.725 2.006
  endloop
 endfacet
  facet normal 0 0 0
    outer loop
   vertex -9.105 13.5 2.006
   vertex -9.24 13.725 2.006
   vertex -9.105 13.65 2.006
  endloop
 endfacet
  facet normal 0 0 0
    outer loop
   vertex -7.63 13.425 2.006
   vertex -7.63 13.725 2.006
   vertex -7.495 13.5 2.006
  endloop
 endfacet
  facet normal 0 0 0
    outer loop
   vertex -7.21 13.425 2.006
   vertex -7.345 13.5 2.006
   vertex -7.21 13.725 2.006
  endloop
 endfacet
  facet normal 0 0 0
    outer loop
   vertex -7.345 13.5 2.006
   vertex -7.345 13.65 2.006
   vertex -7.21 13.725 2.006
  endloop
 endfacet
  facet normal 0 0 0
    outer loop
   vertex -7.495 13.5 2.006
   vertex -7.63 13.725 2.006
   vertex -7.495 13.65 2.006
  endloop
 endfacet
  facet normal 0 0 0
    outer loop
   vertex -6.44 13.425 2.006
   vertex -6.44 13.725 2.006
   vertex -6.305 13.5 2.006
  endloop
 endfacet
  facet normal 0 0 0
    outer loop
   vertex -6.02 13.4 2.006
   vertex -6.155 13.5 2.006
   vertex -6.02 13.75 2.006
  endloop
 endfacet
  facet normal 0 0 0
    outer loop
   vertex -6.155 13.5 2.006
   vertex -6.155 13.65 2.006
   vertex -6.02 13.75 2.006
  endloop
 endfacet
  facet normal 0 0 0
    outer loop
   vertex -6.305 13.5 2.006
   vertex -6.44 13.725 2.006
   vertex -6.305 13.65 2.006
  endloop
 endfacet
  facet normal 0 0 0
    outer loop
   vertex -8.82 13.425 2.006
   vertex -8.82 13.725 2.006
   vertex -8.225 13.725 2.006
  endloop
 endfacet
  facet normal 0 0 0
    outer loop
   vertex -7.63 13.425 2.006
   vertex -8.225 13.725 2.006
   vertex -7.63 13.725 2.006
  endloop
 endfacet
  facet normal 0 0 0
    outer loop
   vertex -8.82 13.425 2.006
   vertex -8.225 13.725 2.006
   vertex -7.63 13.425 2.006
  endloop
 endfacet
  facet normal 0 0 0
    outer loop
   vertex -9.03 13.4 2.006
   vertex -9.105 13.5 2.006
   vertex -8.955 13.5 2.006
  endloop
 endfacet
  facet normal 0 0 0
    outer loop
   vertex -9.105 13.65 2.006
   vertex -9.03 13.75 2.006
   vertex -8.955 13.65 2.006
  endloop
 endfacet
  facet normal 0 0 0
    outer loop
   vertex -7.42 13.4 2.006
   vertex -7.495 13.5 2.006
   vertex -7.345 13.5 2.006
  endloop
 endfacet
  facet normal 0 0 0
    outer loop
   vertex -7.495 13.65 2.006
   vertex -7.42 13.75 2.006
   vertex -7.345 13.65 2.006
  endloop
 endfacet
  facet normal 0 0 0
    outer loop
   vertex -6.23 13.4 2.006
   vertex -6.155 13.5 2.006
   vertex -6.02 13.4 2.006
  endloop
 endfacet
  facet normal 0 0 0
    outer loop
   vertex -6.23 13.4 2.006
   vertex -6.305 13.5 2.006
   vertex -6.155 13.5 2.006
  endloop
 endfacet
  facet normal 0 0 0
    outer loop
   vertex -6.155 13.65 2.006
   vertex -6.23 13.75 2.006
   vertex -6.02 13.75 2.006
  endloop
 endfacet
  facet normal 0 0 0
    outer loop
   vertex -6.305 13.65 2.006
   vertex -6.23 13.75 2.006
   vertex -6.155 13.65 2.006
  endloop
 endfacet
  facet normal 0 0 0
    outer loop
   vertex -9.135 13.4 2.006
   vertex -9.105 13.5 2.006
   vertex -9.03 13.4 2.006
  endloop
 endfacet
  facet normal 0 0 0
    outer loop
   vertex -9.03 13.4 2.006
   vertex -8.955 13.5 2.006
   vertex -8.925 13.4 2.006
  endloop
 endfacet
  facet normal 0 0 0
    outer loop
   vertex -8.955 13.65 2.006
   vertex -9.03 13.75 2.006
   vertex -8.925 13.75 2.006
  endloop
 endfacet
  facet normal 0 0 0
    outer loop
   vertex -9.105 13.65 2.006
   vertex -9.135 13.75 2.006
   vertex -9.03 13.75 2.006
  endloop
 endfacet
  facet normal 0 0 0
    outer loop
   vertex -7.525 13.4 2.006
   vertex -7.495 13.5 2.006
   vertex -7.42 13.4 2.006
  endloop
 endfacet
  facet normal 0 0 0
    outer loop
   vertex -7.42 13.4 2.006
   vertex -7.345 13.5 2.006
   vertex -7.315 13.4 2.006
  endloop
 endfacet
  facet normal 0 0 0
    outer loop
   vertex -7.345 13.65 2.006
   vertex -7.42 13.75 2.006
   vertex -7.315 13.75 2.006
  endloop
 endfacet
  facet normal 0 0 0
    outer loop
   vertex -7.495 13.65 2.006
   vertex -7.525 13.75 2.006
   vertex -7.42 13.75 2.006
  endloop
 endfacet
  facet normal 0 0 0
    outer loop
   vertex -6.335 13.4 2.006
   vertex -6.305 13.5 2.006
   vertex -6.23 13.4 2.006
  endloop
 endfacet
  facet normal 0 0 0
    outer loop
   vertex -6.305 13.65 2.006
   vertex -6.335 13.75 2.006
   vertex -6.23 13.75 2.006
  endloop
 endfacet
  facet normal 0 0 0
    outer loop
   vertex -11.91 13.425 2.006
   vertex -11.02 13.725 2.006
   vertex -11.02 13.425 2.006
  endloop
 endfacet
  facet normal 0 0 0
    outer loop
   vertex -12.8 13.425 2.006
   vertex -12.8 13.725 2.006
   vertex -11.91 13.425 2.006
  endloop
 endfacet
  facet normal 0 0 0
    outer loop
   vertex -11.91 13.425 2.006
   vertex -12.8 13.725 2.006
   vertex -11.02 13.725 2.006
  endloop
 endfacet
  facet normal 0 0 0
    outer loop
   vertex -9.24 13.425 2.006
   vertex -10.13 13.725 2.006
   vertex -9.24 13.725 2.006
  endloop
 endfacet
  facet normal 0 0 0
    outer loop
   vertex -11.02 13.425 2.006
   vertex -11.02 13.725 2.006
   vertex -10.13 13.725 2.006
  endloop
 endfacet
  facet normal 0 0 0
    outer loop
   vertex -11.02 13.425 2.006
   vertex -10.13 13.725 2.006
   vertex -9.24 13.425 2.006
  endloop
 endfacet
  facet normal 0 0 0
    outer loop
   vertex -9.188 13.4 2.006
   vertex -9.105 13.5 2.006
   vertex -9.135 13.4 2.006
  endloop
 endfacet
  facet normal 0 0 0
    outer loop
   vertex -9.188 13.4 2.006
   vertex -9.24 13.425 2.006
   vertex -9.105 13.5 2.006
  endloop
 endfacet
  facet normal 0 0 0
    outer loop
   vertex -9.24 13.4 2.006
   vertex -9.24 13.425 2.006
   vertex -9.188 13.4 2.006
  endloop
 endfacet
  facet normal 0 0 0
    outer loop
   vertex -8.925 13.4 2.006
   vertex -8.955 13.5 2.006
   vertex -8.873 13.4 2.006
  endloop
 endfacet
  facet normal 0 0 0
    outer loop
   vertex -8.873 13.4 2.006
   vertex -8.82 13.425 2.006
   vertex -8.82 13.4 2.006
  endloop
 endfacet
  facet normal 0 0 0
    outer loop
   vertex -8.873 13.4 2.006
   vertex -8.955 13.5 2.006
   vertex -8.82 13.425 2.006
  endloop
 endfacet
  facet normal 0 0 0
    outer loop
   vertex -8.955 13.65 2.006
   vertex -8.925 13.75 2.006
   vertex -8.873 13.75 2.006
  endloop
 endfacet
  facet normal 0 0 0
    outer loop
   vertex -8.955 13.65 2.006
   vertex -8.873 13.75 2.006
   vertex -8.82 13.725 2.006
  endloop
 endfacet
  facet normal 0 0 0
    outer loop
   vertex -8.82 13.725 2.006
   vertex -8.873 13.75 2.006
   vertex -8.82 13.75 2.006
  endloop
 endfacet
  facet normal 0 0 0
    outer loop
   vertex -9.105 13.65 2.006
   vertex -9.188 13.75 2.006
   vertex -9.135 13.75 2.006
  endloop
 endfacet
  facet normal 0 0 0
    outer loop
   vertex -9.24 13.725 2.006
   vertex -9.24 13.75 2.006
   vertex -9.188 13.75 2.006
  endloop
 endfacet
  facet normal 0 0 0
    outer loop
   vertex -9.105 13.65 2.006
   vertex -9.24 13.725 2.006
   vertex -9.188 13.75 2.006
  endloop
 endfacet
  facet normal 0 0 0
    outer loop
   vertex -7.578 13.4 2.006
   vertex -7.495 13.5 2.006
   vertex -7.525 13.4 2.006
  endloop
 endfacet
  facet normal 0 0 0
    outer loop
   vertex -7.578 13.4 2.006
   vertex -7.63 13.425 2.006
   vertex -7.495 13.5 2.006
  endloop
 endfacet
  facet normal 0 0 0
    outer loop
   vertex -7.63 13.4 2.006
   vertex -7.63 13.425 2.006
   vertex -7.578 13.4 2.006
  endloop
 endfacet
  facet normal 0 0 0
    outer loop
   vertex -7.315 13.4 2.006
   vertex -7.345 13.5 2.006
   vertex -7.263 13.4 2.006
  endloop
 endfacet
  facet normal 0 0 0
    outer loop
   vertex -7.263 13.4 2.006
   vertex -7.21 13.425 2.006
   vertex -7.21 13.4 2.006
  endloop
 endfacet
  facet normal 0 0 0
    outer loop
   vertex -7.263 13.4 2.006
   vertex -7.345 13.5 2.006
   vertex -7.21 13.425 2.006
  endloop
 endfacet
  facet normal 0 0 0
    outer loop
   vertex -7.345 13.65 2.006
   vertex -7.315 13.75 2.006
   vertex -7.263 13.75 2.006
  endloop
 endfacet
  facet normal 0 0 0
    outer loop
   vertex -7.345 13.65 2.006
   vertex -7.263 13.75 2.006
   vertex -7.21 13.725 2.006
  endloop
 endfacet
  facet normal 0 0 0
    outer loop
   vertex -7.21 13.725 2.006
   vertex -7.263 13.75 2.006
   vertex -7.21 13.75 2.006
  endloop
 endfacet
  facet normal 0 0 0
    outer loop
   vertex -7.495 13.65 2.006
   vertex -7.578 13.75 2.006
   vertex -7.525 13.75 2.006
  endloop
 endfacet
  facet normal 0 0 0
    outer loop
   vertex -7.63 13.725 2.006
   vertex -7.63 13.75 2.006
   vertex -7.578 13.75 2.006
  endloop
 endfacet
  facet normal 0 0 0
    outer loop
   vertex -7.495 13.65 2.006
   vertex -7.63 13.725 2.006
   vertex -7.578 13.75 2.006
  endloop
 endfacet
  facet normal 0 0 0
    outer loop
   vertex -6.388 13.4 2.006
   vertex -6.305 13.5 2.006
   vertex -6.335 13.4 2.006
  endloop
 endfacet
  facet normal 0 0 0
    outer loop
   vertex -6.388 13.4 2.006
   vertex -6.44 13.425 2.006
   vertex -6.305 13.5 2.006
  endloop
 endfacet
  facet normal 0 0 0
    outer loop
   vertex -6.44 13.4 2.006
   vertex -6.44 13.425 2.006
   vertex -6.388 13.4 2.006
  endloop
 endfacet
  facet normal 0 0 0
    outer loop
   vertex -6.305 13.65 2.006
   vertex -6.388 13.75 2.006
   vertex -6.335 13.75 2.006
  endloop
 endfacet
  facet normal 0 0 0
    outer loop
   vertex -6.44 13.725 2.006
   vertex -6.44 13.75 2.006
   vertex -6.388 13.75 2.006
  endloop
 endfacet
  facet normal 0 0 0
    outer loop
   vertex -6.305 13.65 2.006
   vertex -6.44 13.725 2.006
   vertex -6.388 13.75 2.006
  endloop
 endfacet
  facet normal 0 0 0
    outer loop
   vertex -9.105 13.65 1.736
   vertex -9.105 13.65 2.006
   vertex -8.955 13.65 2.006
  endloop
 endfacet
  facet normal 0 0 0
    outer loop
   vertex -9.105 13.65 1.736
   vertex -8.955 13.65 2.006
   vertex -8.955 13.65 1.736
  endloop
 endfacet
  facet normal 0 0 0
    outer loop
   vertex -7.495 13.65 1.736
   vertex -7.495 13.65 2.006
   vertex -7.345 13.65 2.006
  endloop
 endfacet
  facet normal 0 0 0
    outer loop
   vertex -7.495 13.65 1.736
   vertex -7.345 13.65 2.006
   vertex -7.345 13.65 1.736
  endloop
 endfacet
  facet normal 0 0 0
    outer loop
   vertex -6.305 13.65 1.736
   vertex -6.305 13.65 2.006
   vertex -6.155 13.65 2.006
  endloop
 endfacet
  facet normal 0 0 0
    outer loop
   vertex -6.305 13.65 1.736
   vertex -6.155 13.65 2.006
   vertex -6.155 13.65 1.736
  endloop
 endfacet
  facet normal 0 0 0
    outer loop
   vertex -9.105 13.5 1.736
   vertex -9.105 13.5 2.006
   vertex -9.105 13.65 2.006
  endloop
 endfacet
  facet normal 0 0 0
    outer loop
   vertex -9.105 13.5 1.736
   vertex -9.105 13.65 2.006
   vertex -9.105 13.65 1.736
  endloop
 endfacet
  facet normal 0 0 0
    outer loop
   vertex -6.155 13.5 1.736
   vertex -6.155 13.5 2.006
   vertex -6.305 13.5 2.006
  endloop
 endfacet
  facet normal 0 0 0
    outer loop
   vertex -6.155 13.5 1.736
   vertex -6.305 13.5 2.006
   vertex -6.305 13.5 1.736
  endloop
 endfacet
  facet normal 0 0 0
    outer loop
   vertex -7.345 13.5 1.736
   vertex -7.345 13.5 2.006
   vertex -7.495 13.5 2.006
  endloop
 endfacet
  facet normal 0 0 0
    outer loop
   vertex -7.345 13.5 1.736
   vertex -7.495 13.5 2.006
   vertex -7.495 13.5 1.736
  endloop
 endfacet
  facet normal 0 0 0
    outer loop
   vertex -8.955 13.5 1.736
   vertex -8.955 13.5 2.006
   vertex -9.105 13.5 2.006
  endloop
 endfacet
  facet normal 0 0 0
    outer loop
   vertex -8.955 13.5 1.736
   vertex -9.105 13.5 2.006
   vertex -9.105 13.5 1.736
  endloop
 endfacet
  facet normal 0 0 0
    outer loop
   vertex -8.955 13.65 1.736
   vertex -8.955 13.65 2.006
   vertex -8.955 13.5 2.006
  endloop
 endfacet
  facet normal 0 0 0
    outer loop
   vertex -8.955 13.65 1.736
   vertex -8.955 13.5 2.006
   vertex -8.955 13.5 1.736
  endloop
 endfacet
  facet normal 0 0 0
    outer loop
   vertex -7.495 13.5 1.736
   vertex -7.495 13.5 2.006
   vertex -7.495 13.65 2.006
  endloop
 endfacet
  facet normal 0 0 0
    outer loop
   vertex -7.495 13.5 1.736
   vertex -7.495 13.65 2.006
   vertex -7.495 13.65 1.736
  endloop
 endfacet
  facet normal 0 0 0
    outer loop
   vertex -7.345 13.65 1.736
   vertex -7.345 13.65 2.006
   vertex -7.345 13.5 2.006
  endloop
 endfacet
  facet normal 0 0 0
    outer loop
   vertex -7.345 13.65 1.736
   vertex -7.345 13.5 2.006
   vertex -7.345 13.5 1.736
  endloop
 endfacet
  facet normal 0 0 0
    outer loop
   vertex -6.305 13.5 1.736
   vertex -6.305 13.5 2.006
   vertex -6.305 13.65 2.006
  endloop
 endfacet
  facet normal 0 0 0
    outer loop
   vertex -6.305 13.5 1.736
   vertex -6.305 13.65 2.006
   vertex -6.305 13.65 1.736
  endloop
 endfacet
  facet normal 0 0 0
    outer loop
   vertex -6.155 13.65 1.736
   vertex -6.155 13.65 2.006
   vertex -6.155 13.5 2.006
  endloop
 endfacet
  facet normal 0 0 0
    outer loop
   vertex -6.155 13.65 1.736
   vertex -6.155 13.5 2.006
   vertex -6.155 13.5 1.736
  endloop
 endfacet
  facet normal 0 0 0
    outer loop
   vertex -6.44 13.725 2.366
   vertex -7.21 13.725 2.366
   vertex -6.44 13.425 2.366
  endloop
 endfacet
  facet normal 0 0 0
    outer loop
   vertex -6.44 13.425 2.366
   vertex -7.21 13.725 2.366
   vertex -7.21 13.425 2.366
  endloop
 endfacet
  facet normal 0 0 0
    outer loop
   vertex -6.02 13.4 2.366
   vertex -6.02 13.75 2.366
   vertex -6.23 13.4 2.366
  endloop
 endfacet
  facet normal 0 0 0
    outer loop
   vertex -6.02 13.75 2.366
   vertex -6.23 13.75 2.366
   vertex -6.23 13.4 2.366
  endloop
 endfacet
  facet normal 0 0 0
    outer loop
   vertex -8.225 13.725 2.366
   vertex -8.82 13.725 2.366
   vertex -8.82 13.425 2.366
  endloop
 endfacet
  facet normal 0 0 0
    outer loop
   vertex -7.63 13.725 2.366
   vertex -8.225 13.725 2.366
   vertex -7.63 13.425 2.366
  endloop
 endfacet
  facet normal 0 0 0
    outer loop
   vertex -7.63 13.425 2.366
   vertex -8.225 13.725 2.366
   vertex -8.82 13.425 2.366
  endloop
 endfacet
  facet normal 0 0 0
    outer loop
   vertex -11.02 13.425 2.366
   vertex -11.02 13.725 2.366
   vertex -11.91 13.425 2.366
  endloop
 endfacet
  facet normal 0 0 0
    outer loop
   vertex -11.91 13.425 2.366
   vertex -12.8 13.725 2.366
   vertex -12.8 13.425 2.366
  endloop
 endfacet
  facet normal 0 0 0
    outer loop
   vertex -11.02 13.725 2.366
   vertex -12.8 13.725 2.366
   vertex -11.91 13.425 2.366
  endloop
 endfacet
  facet normal 0 0 0
    outer loop
   vertex -9.24 13.725 2.366
   vertex -10.13 13.725 2.366
   vertex -9.24 13.425 2.366
  endloop
 endfacet
  facet normal 0 0 0
    outer loop
   vertex -10.13 13.725 2.366
   vertex -11.02 13.725 2.366
   vertex -11.02 13.425 2.366
  endloop
 endfacet
  facet normal 0 0 0
    outer loop
   vertex -9.24 13.425 2.366
   vertex -10.13 13.725 2.366
   vertex -11.02 13.425 2.366
  endloop
 endfacet
  facet normal 0 0 0
    outer loop
   vertex -9.03 13.75 2.366
   vertex -9.135 13.75 2.366
   vertex -9.177 13.575 2.366
  endloop
 endfacet
  facet normal 0 0 0
    outer loop
   vertex -9.177 13.575 2.366
   vertex -9.24 13.725 2.366
   vertex -9.24 13.425 2.366
  endloop
 endfacet
  facet normal 0 0 0
    outer loop
   vertex -9.03 13.4 2.366
   vertex -9.177 13.575 2.366
   vertex -9.135 13.4 2.366
  endloop
 endfacet
  facet normal 0 0 0
    outer loop
   vertex -9.135 13.75 2.366
   vertex -9.188 13.75 2.366
   vertex -9.177 13.575 2.366
  endloop
 endfacet
  facet normal 0 0 0
    outer loop
   vertex -9.188 13.75 2.366
   vertex -9.24 13.75 2.366
   vertex -9.24 13.725 2.366
  endloop
 endfacet
  facet normal 0 0 0
    outer loop
   vertex -9.188 13.75 2.366
   vertex -9.24 13.725 2.366
   vertex -9.177 13.575 2.366
  endloop
 endfacet
  facet normal 0 0 0
    outer loop
   vertex -8.82 13.75 2.366
   vertex -8.873 13.75 2.366
   vertex -8.82 13.725 2.366
  endloop
 endfacet
  facet normal 0 0 0
    outer loop
   vertex -7.42 13.75 2.366
   vertex -7.525 13.75 2.366
   vertex -7.511 13.575 2.366
  endloop
 endfacet
  facet normal 0 0 0
    outer loop
   vertex -7.42 13.4 2.366
   vertex -7.511 13.575 2.366
   vertex -7.525 13.4 2.366
  endloop
 endfacet
  facet normal 0 0 0
    outer loop
   vertex -7.511 13.575 2.366
   vertex -7.63 13.725 2.366
   vertex -7.63 13.425 2.366
  endloop
 endfacet
  facet normal 0 0 0
    outer loop
   vertex -7.525 13.75 2.366
   vertex -7.578 13.75 2.366
   vertex -7.511 13.575 2.366
  endloop
 endfacet
  facet normal 0 0 0
    outer loop
   vertex -7.578 13.75 2.366
   vertex -7.63 13.75 2.366
   vertex -7.63 13.725 2.366
  endloop
 endfacet
  facet normal 0 0 0
    outer loop
   vertex -7.578 13.75 2.366
   vertex -7.63 13.725 2.366
   vertex -7.511 13.575 2.366
  endloop
 endfacet
  facet normal 0 0 0
    outer loop
   vertex -7.21 13.75 2.366
   vertex -7.263 13.75 2.366
   vertex -7.21 13.725 2.366
  endloop
 endfacet
  facet normal 0 0 0
    outer loop
   vertex -6.23 13.75 2.366
   vertex -6.335 13.75 2.366
   vertex -6.377 13.575 2.366
  endloop
 endfacet
  facet normal 0 0 0
    outer loop
   vertex -6.377 13.575 2.366
   vertex -6.44 13.725 2.366
   vertex -6.44 13.425 2.366
  endloop
 endfacet
  facet normal 0 0 0
    outer loop
   vertex -6.23 13.4 2.366
   vertex -6.377 13.575 2.366
   vertex -6.335 13.4 2.366
  endloop
 endfacet
  facet normal 0 0 0
    outer loop
   vertex -6.23 13.75 2.366
   vertex -6.377 13.575 2.366
   vertex -6.23 13.4 2.366
  endloop
 endfacet
  facet normal 0 0 0
    outer loop
   vertex -6.335 13.75 2.366
   vertex -6.388 13.75 2.366
   vertex -6.377 13.575 2.366
  endloop
 endfacet
  facet normal 0 0 0
    outer loop
   vertex -6.388 13.75 2.366
   vertex -6.44 13.75 2.366
   vertex -6.44 13.725 2.366
  endloop
 endfacet
  facet normal 0 0 0
    outer loop
   vertex -6.388 13.75 2.366
   vertex -6.44 13.725 2.366
   vertex -6.377 13.575 2.366
  endloop
 endfacet
  facet normal 0 0 0
    outer loop
   vertex -6.335 13.4 2.366
   vertex -6.377 13.575 2.366
   vertex -6.388 13.4 2.366
  endloop
 endfacet
  facet normal 0 0 0
    outer loop
   vertex -6.377 13.575 2.366
   vertex -6.44 13.425 2.366
   vertex -6.388 13.4 2.366
  endloop
 endfacet
  facet normal 0 0 0
    outer loop
   vertex -6.388 13.4 2.366
   vertex -6.44 13.425 2.366
   vertex -6.44 13.4 2.366
  endloop
 endfacet
  facet normal 0 0 0
    outer loop
   vertex -7.525 13.4 2.366
   vertex -7.511 13.575 2.366
   vertex -7.578 13.4 2.366
  endloop
 endfacet
  facet normal 0 0 0
    outer loop
   vertex -7.511 13.575 2.366
   vertex -7.63 13.425 2.366
   vertex -7.578 13.4 2.366
  endloop
 endfacet
  facet normal 0 0 0
    outer loop
   vertex -7.578 13.4 2.366
   vertex -7.63 13.425 2.366
   vertex -7.63 13.4 2.366
  endloop
 endfacet
  facet normal 0 0 0
    outer loop
   vertex -7.21 13.4 2.366
   vertex -7.21 13.425 2.366
   vertex -7.263 13.4 2.366
  endloop
 endfacet
  facet normal 0 0 0
    outer loop
   vertex -9.135 13.4 2.366
   vertex -9.177 13.575 2.366
   vertex -9.188 13.4 2.366
  endloop
 endfacet
  facet normal 0 0 0
    outer loop
   vertex -9.177 13.575 2.366
   vertex -9.24 13.425 2.366
   vertex -9.188 13.4 2.366
  endloop
 endfacet
  facet normal 0 0 0
    outer loop
   vertex -9.188 13.4 2.366
   vertex -9.24 13.425 2.366
   vertex -9.24 13.4 2.366
  endloop
 endfacet
  facet normal 0 0 0
    outer loop
   vertex -8.82 13.4 2.366
   vertex -8.82 13.425 2.366
   vertex -8.873 13.4 2.366
  endloop
 endfacet
  facet normal 0 0 0
    outer loop
   vertex -8.925 13.75 2.366
   vertex -9.03 13.75 2.366
   vertex -8.899 13.627 2.366
  endloop
 endfacet
  facet normal 0 0 0
    outer loop
   vertex -8.873 13.75 2.366
   vertex -8.925 13.75 2.366
   vertex -8.899 13.627 2.366
  endloop
 endfacet
  facet normal 0 0 0
    outer loop
   vertex -8.82 13.725 2.366
   vertex -8.873 13.75 2.366
   vertex -8.899 13.627 2.366
  endloop
 endfacet
  facet normal 0 0 0
    outer loop
   vertex -8.82 13.725 2.366
   vertex -8.899 13.627 2.366
   vertex -8.82 13.425 2.366
  endloop
 endfacet
  facet normal 0 0 0
    outer loop
   vertex -8.899 13.627 2.366
   vertex -9.03 13.75 2.366
   vertex -9.177 13.575 2.366
  endloop
 endfacet
  facet normal 0 0 0
    outer loop
   vertex -7.263 13.75 2.366
   vertex -7.315 13.75 2.366
   vertex -7.289 13.627 2.366
  endloop
 endfacet
  facet normal 0 0 0
    outer loop
   vertex -7.21 13.725 2.366
   vertex -7.263 13.75 2.366
   vertex -7.289 13.627 2.366
  endloop
 endfacet
  facet normal 0 0 0
    outer loop
   vertex -7.21 13.725 2.366
   vertex -7.289 13.627 2.366
   vertex -7.21 13.425 2.366
  endloop
 endfacet
  facet normal 0 0 0
    outer loop
   vertex -7.315 13.75 2.366
   vertex -7.42 13.75 2.366
   vertex -7.289 13.627 2.366
  endloop
 endfacet
  facet normal 0 0 0
    outer loop
   vertex -7.289 13.627 2.366
   vertex -7.42 13.75 2.366
   vertex -7.511 13.575 2.366
  endloop
 endfacet
  facet normal 0 0 0
    outer loop
   vertex -8.873 13.4 2.366
   vertex -8.899 13.512 2.366
   vertex -8.925 13.4 2.366
  endloop
 endfacet
  facet normal 0 0 0
    outer loop
   vertex -8.925 13.4 2.366
   vertex -8.899 13.512 2.366
   vertex -9.03 13.4 2.366
  endloop
 endfacet
  facet normal 0 0 0
    outer loop
   vertex -8.899 13.627 2.366
   vertex -8.899 13.512 2.366
   vertex -8.82 13.425 2.366
  endloop
 endfacet
  facet normal 0 0 0
    outer loop
   vertex -8.82 13.425 2.366
   vertex -8.899 13.512 2.366
   vertex -8.873 13.4 2.366
  endloop
 endfacet
  facet normal 0 0 0
    outer loop
   vertex -8.899 13.627 2.366
   vertex -9.177 13.575 2.366
   vertex -8.899 13.512 2.366
  endloop
 endfacet
  facet normal 0 0 0
    outer loop
   vertex -8.899 13.512 2.366
   vertex -9.177 13.575 2.366
   vertex -9.03 13.4 2.366
  endloop
 endfacet
  facet normal 0 0 0
    outer loop
   vertex -7.263 13.4 2.366
   vertex -7.289 13.512 2.366
   vertex -7.315 13.4 2.366
  endloop
 endfacet
  facet normal 0 0 0
    outer loop
   vertex -7.315 13.4 2.366
   vertex -7.289 13.512 2.366
   vertex -7.42 13.4 2.366
  endloop
 endfacet
  facet normal 0 0 0
    outer loop
   vertex -7.289 13.627 2.366
   vertex -7.289 13.512 2.366
   vertex -7.21 13.425 2.366
  endloop
 endfacet
  facet normal 0 0 0
    outer loop
   vertex -7.21 13.425 2.366
   vertex -7.289 13.512 2.366
   vertex -7.263 13.4 2.366
  endloop
 endfacet
  facet normal 0 0 0
    outer loop
   vertex -7.289 13.627 2.366
   vertex -7.511 13.575 2.366
   vertex -7.289 13.512 2.366
  endloop
 endfacet
  facet normal 0 0 0
    outer loop
   vertex -7.289 13.512 2.366
   vertex -7.511 13.575 2.366
   vertex -7.42 13.4 2.366
  endloop
 endfacet
  facet normal 0 0 0
    outer loop
   vertex -6.07 12.59 0.326
   vertex -6.07 12.59 0.506
   vertex -6.22 12.59 0.506
  endloop
 endfacet
  facet normal 0 0 0
    outer loop
   vertex -6.07 12.59 0.326
   vertex -6.22 12.59 0.506
   vertex -6.22 12.59 0.326
  endloop
 endfacet
  facet normal 0 0 0
    outer loop
   vertex -7.47 12.59 0.326
   vertex -7.47 12.59 0.506
   vertex -7.62 12.59 0.506
  endloop
 endfacet
  facet normal 0 0 0
    outer loop
   vertex -7.47 12.59 0.326
   vertex -7.62 12.59 0.506
   vertex -7.62 12.59 0.326
  endloop
 endfacet
  facet normal 0 0 0
    outer loop
   vertex -8.87 12.59 0.326
   vertex -8.87 12.59 0.506
   vertex -9.02 12.59 0.506
  endloop
 endfacet
  facet normal 0 0 0
    outer loop
   vertex -8.87 12.59 0.326
   vertex -9.02 12.59 0.506
   vertex -9.02 12.59 0.326
  endloop
 endfacet
  facet normal 0 0 0
    outer loop
   vertex -9.02 12.59 0.326
   vertex -9.02 12.59 0.506
   vertex -9.02 13 0.326
  endloop
 endfacet
  facet normal 0 0 0
    outer loop
   vertex -9.02 13 0.326
   vertex -9.02 13.41 0.506
   vertex -9.02 13.41 0.326
  endloop
 endfacet
  facet normal 0 0 0
    outer loop
   vertex -9.02 13 0.326
   vertex -9.02 12.59 0.506
   vertex -9.02 13.41 0.506
  endloop
 endfacet
  facet normal 0 0 0
    outer loop
   vertex -6.22 13.41 0.326
   vertex -6.22 13.41 0.506
   vertex -6.34 13.41 0.506
  endloop
 endfacet
  facet normal 0 0 0
    outer loop
   vertex -6.22 13.41 0.326
   vertex -6.34 13.41 0.506
   vertex -6.34 13.41 0.326
  endloop
 endfacet
  facet normal 0 0 0
    outer loop
   vertex -7.35 13.41 0.326
   vertex -7.35 13.41 0.506
   vertex -7.47 13.41 0.506
  endloop
 endfacet
  facet normal 0 0 0
    outer loop
   vertex -7.35 13.41 0.326
   vertex -7.47 13.41 0.506
   vertex -7.47 13.41 0.326
  endloop
 endfacet
  facet normal 0 0 0
    outer loop
   vertex -9.02 13.41 0.326
   vertex -9.02 13.41 0.506
   vertex -9.14 13.41 0.506
  endloop
 endfacet
  facet normal 0 0 0
    outer loop
   vertex -9.02 13.41 0.326
   vertex -9.14 13.41 0.506
   vertex -9.14 13.41 0.326
  endloop
 endfacet
  facet normal 0 0 0
    outer loop
   vertex -9.14 13.41 0.326
   vertex -9.14 13.41 0.506
   vertex -9.14 13.74 0.506
  endloop
 endfacet
  facet normal 0 0 0
    outer loop
   vertex -9.14 13.41 0.326
   vertex -9.14 13.74 0.506
   vertex -9.14 13.74 0.326
  endloop
 endfacet
  facet normal 0 0 0
    outer loop
   vertex -9.14 13.74 0.326
   vertex -9.14 13.74 0.506
   vertex -8.87 13.74 0.506
  endloop
 endfacet
  facet normal 0 0 0
    outer loop
   vertex -9.14 13.74 0.326
   vertex -8.87 13.74 0.506
   vertex -8.87 13.74 0.326
  endloop
 endfacet
  facet normal 0 0 0
    outer loop
   vertex -7.62 13.74 0.326
   vertex -7.62 13.74 0.506
   vertex -7.35 13.74 0.506
  endloop
 endfacet
  facet normal 0 0 0
    outer loop
   vertex -7.62 13.74 0.326
   vertex -7.35 13.74 0.506
   vertex -7.35 13.74 0.326
  endloop
 endfacet
  facet normal 0 0 0
    outer loop
   vertex -6.34 13.74 0.326
   vertex -6.34 13.74 0.506
   vertex -6.07 13.74 0.506
  endloop
 endfacet
  facet normal 0 0 0
    outer loop
   vertex -6.34 13.74 0.326
   vertex -6.07 13.74 0.506
   vertex -6.07 13.74 0.326
  endloop
 endfacet
  facet normal 0 0 0
    outer loop
   vertex -8.87 13.74 0.326
   vertex -8.87 13.74 0.506
   vertex -8.87 13.165 0.326
  endloop
 endfacet
  facet normal 0 0 0
    outer loop
   vertex -8.87 13.165 0.326
   vertex -8.87 12.59 0.506
   vertex -8.87 12.59 0.326
  endloop
 endfacet
  facet normal 0 0 0
    outer loop
   vertex -8.87 13.165 0.326
   vertex -8.87 13.74 0.506
   vertex -8.87 12.59 0.506
  endloop
 endfacet
  facet normal 0 0 0
    outer loop
   vertex -7.47 13.41 0.326
   vertex -7.47 13.41 0.506
   vertex -7.47 13 0.326
  endloop
 endfacet
  facet normal 0 0 0
    outer loop
   vertex -7.47 13 0.326
   vertex -7.47 12.59 0.506
   vertex -7.47 12.59 0.326
  endloop
 endfacet
  facet normal 0 0 0
    outer loop
   vertex -7.47 13 0.326
   vertex -7.47 13.41 0.506
   vertex -7.47 12.59 0.506
  endloop
 endfacet
  facet normal 0 0 0
    outer loop
   vertex -7.62 12.59 0.326
   vertex -7.62 12.59 0.506
   vertex -7.62 13.165 0.326
  endloop
 endfacet
  facet normal 0 0 0
    outer loop
   vertex -7.62 13.165 0.326
   vertex -7.62 13.74 0.506
   vertex -7.62 13.74 0.326
  endloop
 endfacet
  facet normal 0 0 0
    outer loop
   vertex -7.62 13.165 0.326
   vertex -7.62 12.59 0.506
   vertex -7.62 13.74 0.506
  endloop
 endfacet
  facet normal 0 0 0
    outer loop
   vertex -7.35 13.74 0.326
   vertex -7.35 13.74 0.506
   vertex -7.35 13.41 0.506
  endloop
 endfacet
  facet normal 0 0 0
    outer loop
   vertex -7.35 13.74 0.326
   vertex -7.35 13.41 0.506
   vertex -7.35 13.41 0.326
  endloop
 endfacet
  facet normal 0 0 0
    outer loop
   vertex -6.22 12.59 0.326
   vertex -6.22 12.59 0.506
   vertex -6.22 13 0.326
  endloop
 endfacet
  facet normal 0 0 0
    outer loop
   vertex -6.22 13 0.326
   vertex -6.22 13.41 0.506
   vertex -6.22 13.41 0.326
  endloop
 endfacet
  facet normal 0 0 0
    outer loop
   vertex -6.22 13 0.326
   vertex -6.22 12.59 0.506
   vertex -6.22 13.41 0.506
  endloop
 endfacet
  facet normal 0 0 0
    outer loop
   vertex -6.34 13.41 0.326
   vertex -6.34 13.41 0.506
   vertex -6.34 13.74 0.506
  endloop
 endfacet
  facet normal 0 0 0
    outer loop
   vertex -6.34 13.41 0.326
   vertex -6.34 13.74 0.506
   vertex -6.34 13.74 0.326
  endloop
 endfacet
  facet normal 0 0 0
    outer loop
   vertex -6.07 13.74 0.326
   vertex -6.07 13.74 0.506
   vertex -6.07 13.165 0.326
  endloop
 endfacet
  facet normal 0 0 0
    outer loop
   vertex -6.07 13.165 0.326
   vertex -6.07 12.59 0.506
   vertex -6.07 12.59 0.326
  endloop
 endfacet
  facet normal 0 0 0
    outer loop
   vertex -6.07 13.165 0.326
   vertex -6.07 13.74 0.506
   vertex -6.07 12.59 0.506
  endloop
 endfacet
  facet normal 0 0 0
    outer loop
   vertex -6.02 13.4 1.376
   vertex -6.02 13.4 1.736
   vertex -6.44 13.4 1.736
  endloop
 endfacet
  facet normal 0 0 0
    outer loop
   vertex -6.02 13.4 1.376
   vertex -6.44 13.4 1.736
   vertex -6.44 13.4 1.376
  endloop
 endfacet
  facet normal 0 0 0
    outer loop
   vertex -7.21 13.4 1.376
   vertex -7.21 13.4 1.736
   vertex -7.67 13.4 1.736
  endloop
 endfacet
  facet normal 0 0 0
    outer loop
   vertex -7.21 13.4 1.376
   vertex -7.67 13.4 1.736
   vertex -7.67 13.4 1.376
  endloop
 endfacet
  facet normal 0 0 0
    outer loop
   vertex -8.82 13.4 1.376
   vertex -8.82 13.4 1.736
   vertex -9.24 13.4 1.736
  endloop
 endfacet
  facet normal 0 0 0
    outer loop
   vertex -8.82 13.4 1.376
   vertex -9.24 13.4 1.736
   vertex -9.24 13.4 1.376
  endloop
 endfacet
  facet normal 0 0 0
    outer loop
   vertex -9.24 13.4 1.376
   vertex -9.24 13.4 1.736
   vertex -9.24 13.75 1.736
  endloop
 endfacet
  facet normal 0 0 0
    outer loop
   vertex -9.24 13.4 1.376
   vertex -9.24 13.75 1.736
   vertex -9.24 13.75 1.376
  endloop
 endfacet
  facet normal 0 0 0
    outer loop
   vertex -9.24 13.75 1.376
   vertex -9.24 13.75 1.736
   vertex -8.82 13.75 1.736
  endloop
 endfacet
  facet normal 0 0 0
    outer loop
   vertex -9.24 13.75 1.376
   vertex -8.82 13.75 1.736
   vertex -8.82 13.75 1.376
  endloop
 endfacet
  facet normal 0 0 0
    outer loop
   vertex -7.67 13.75 1.376
   vertex -7.67 13.75 1.736
   vertex -7.21 13.75 1.736
  endloop
 endfacet
  facet normal 0 0 0
    outer loop
   vertex -7.67 13.75 1.376
   vertex -7.21 13.75 1.736
   vertex -7.21 13.75 1.376
  endloop
 endfacet
  facet normal 0 0 0
    outer loop
   vertex -6.44 13.75 1.376
   vertex -6.44 13.75 1.736
   vertex -6.02 13.75 1.736
  endloop
 endfacet
  facet normal 0 0 0
    outer loop
   vertex -6.44 13.75 1.376
   vertex -6.02 13.75 1.736
   vertex -6.02 13.75 1.376
  endloop
 endfacet
  facet normal 0 0 0
    outer loop
   vertex -8.82 13.75 1.376
   vertex -8.82 13.75 1.736
   vertex -8.82 13.4 1.736
  endloop
 endfacet
  facet normal 0 0 0
    outer loop
   vertex -8.82 13.75 1.376
   vertex -8.82 13.4 1.736
   vertex -8.82 13.4 1.376
  endloop
 endfacet
  facet normal 0 0 0
    outer loop
   vertex -7.67 13.4 1.376
   vertex -7.67 13.4 1.736
   vertex -7.67 13.75 1.736
  endloop
 endfacet
  facet normal 0 0 0
    outer loop
   vertex -7.67 13.4 1.376
   vertex -7.67 13.75 1.736
   vertex -7.67 13.75 1.376
  endloop
 endfacet
  facet normal 0 0 0
    outer loop
   vertex -7.21 13.75 1.376
   vertex -7.21 13.75 1.736
   vertex -7.21 13.4 1.736
  endloop
 endfacet
  facet normal 0 0 0
    outer loop
   vertex -7.21 13.75 1.376
   vertex -7.21 13.4 1.736
   vertex -7.21 13.4 1.376
  endloop
 endfacet
  facet normal 0 0 0
    outer loop
   vertex -6.44 13.4 1.376
   vertex -6.44 13.4 1.736
   vertex -6.44 13.75 1.736
  endloop
 endfacet
  facet normal 0 0 0
    outer loop
   vertex -6.44 13.4 1.376
   vertex -6.44 13.75 1.736
   vertex -6.44 13.75 1.376
  endloop
 endfacet
  facet normal 0 0 0
    outer loop
   vertex -6.02 13.75 1.376
   vertex -6.02 13.75 1.736
   vertex -6.02 13.4 1.736
  endloop
 endfacet
  facet normal 0 0 0
    outer loop
   vertex -6.02 13.75 1.376
   vertex -6.02 13.4 1.736
   vertex -6.02 13.4 1.376
  endloop
 endfacet
  facet normal 0 0 0
    outer loop
   vertex -12.8 13.425 2.006
   vertex -12.8 13.425 2.366
   vertex -12.8 13.725 2.366
  endloop
 endfacet
  facet normal 0 0 0
    outer loop
   vertex -12.8 13.425 2.006
   vertex -12.8 13.725 2.366
   vertex -12.8 13.725 2.006
  endloop
 endfacet
  facet normal 0 0 0
    outer loop
   vertex -6.44 13.425 2.006
   vertex -6.44 13.425 2.366
   vertex -7.21 13.425 2.366
  endloop
 endfacet
  facet normal 0 0 0
    outer loop
   vertex -6.44 13.425 2.006
   vertex -7.21 13.425 2.366
   vertex -7.21 13.425 2.006
  endloop
 endfacet
  facet normal 0 0 0
    outer loop
   vertex -7.63 13.425 2.006
   vertex -7.63 13.425 2.366
   vertex -8.82 13.425 2.366
  endloop
 endfacet
  facet normal 0 0 0
    outer loop
   vertex -7.63 13.425 2.006
   vertex -8.82 13.425 2.366
   vertex -8.82 13.425 2.006
  endloop
 endfacet
  facet normal 0 0 0
    outer loop
   vertex -9.24 13.425 2.006
   vertex -9.24 13.425 2.366
   vertex -10.13 13.425 2.006
  endloop
 endfacet
  facet normal 0 0 0
    outer loop
   vertex -10.13 13.425 2.006
   vertex -11.02 13.425 2.366
   vertex -11.02 13.425 2.006
  endloop
 endfacet
  facet normal 0 0 0
    outer loop
   vertex -10.13 13.425 2.006
   vertex -9.24 13.425 2.366
   vertex -11.02 13.425 2.366
  endloop
 endfacet
  facet normal 0 0 0
    outer loop
   vertex -11.91 13.425 2.006
   vertex -12.8 13.425 2.366
   vertex -12.8 13.425 2.006
  endloop
 endfacet
  facet normal 0 0 0
    outer loop
   vertex -11.02 13.425 2.006
   vertex -11.02 13.425 2.366
   vertex -11.91 13.425 2.006
  endloop
 endfacet
  facet normal 0 0 0
    outer loop
   vertex -11.91 13.425 2.006
   vertex -11.02 13.425 2.366
   vertex -12.8 13.425 2.366
  endloop
 endfacet
  facet normal 0 0 0
    outer loop
   vertex -12.8 13.725 2.006
   vertex -12.8 13.725 2.366
   vertex -11.91 13.725 2.006
  endloop
 endfacet
  facet normal 0 0 0
    outer loop
   vertex -11.91 13.725 2.006
   vertex -11.02 13.725 2.366
   vertex -11.02 13.725 2.006
  endloop
 endfacet
  facet normal 0 0 0
    outer loop
   vertex -11.91 13.725 2.006
   vertex -12.8 13.725 2.366
   vertex -11.02 13.725 2.366
  endloop
 endfacet
  facet normal 0 0 0
    outer loop
   vertex -10.13 13.725 2.006
   vertex -9.24 13.725 2.366
   vertex -9.24 13.725 2.006
  endloop
 endfacet
  facet normal 0 0 0
    outer loop
   vertex -11.02 13.725 2.006
   vertex -11.02 13.725 2.366
   vertex -10.13 13.725 2.006
  endloop
 endfacet
  facet normal 0 0 0
    outer loop
   vertex -10.13 13.725 2.006
   vertex -11.02 13.725 2.366
   vertex -9.24 13.725 2.366
  endloop
 endfacet
  facet normal 0 0 0
    outer loop
   vertex -8.82 13.725 2.006
   vertex -8.82 13.725 2.366
   vertex -7.63 13.725 2.366
  endloop
 endfacet
  facet normal 0 0 0
    outer loop
   vertex -8.82 13.725 2.006
   vertex -7.63 13.725 2.366
   vertex -7.63 13.725 2.006
  endloop
 endfacet
  facet normal 0 0 0
    outer loop
   vertex -7.21 13.725 2.006
   vertex -7.21 13.725 2.366
   vertex -6.44 13.725 2.366
  endloop
 endfacet
  facet normal 0 0 0
    outer loop
   vertex -7.21 13.725 2.006
   vertex -6.44 13.725 2.366
   vertex -6.44 13.725 2.006
  endloop
 endfacet
  facet normal 0 0 0
    outer loop
   vertex -6.02 13.4 2.006
   vertex -6.02 13.4 2.366
   vertex -6.44 13.4 2.366
  endloop
 endfacet
  facet normal 0 0 0
    outer loop
   vertex -6.02 13.4 2.006
   vertex -6.44 13.4 2.366
   vertex -6.44 13.4 2.006
  endloop
 endfacet
  facet normal 0 0 0
    outer loop
   vertex -7.21 13.4 2.006
   vertex -7.21 13.4 2.366
   vertex -7.63 13.4 2.366
  endloop
 endfacet
  facet normal 0 0 0
    outer loop
   vertex -7.21 13.4 2.006
   vertex -7.63 13.4 2.366
   vertex -7.63 13.4 2.006
  endloop
 endfacet
  facet normal 0 0 0
    outer loop
   vertex -8.82 13.4 2.006
   vertex -8.82 13.4 2.366
   vertex -9.24 13.4 2.366
  endloop
 endfacet
  facet normal 0 0 0
    outer loop
   vertex -8.82 13.4 2.006
   vertex -9.24 13.4 2.366
   vertex -9.24 13.4 2.006
  endloop
 endfacet
  facet normal 0 0 0
    outer loop
   vertex -9.24 13.4 2.186
   vertex -9.24 13.4 2.276
   vertex -9.24 13.425 2.186
  endloop
 endfacet
  facet normal 0 0 0
    outer loop
   vertex -9.24 13.4 2.276
   vertex -9.24 13.4 2.366
   vertex -9.24 13.425 2.366
  endloop
 endfacet
  facet normal 0 0 0
    outer loop
   vertex -9.24 13.425 2.186
   vertex -9.24 13.4 2.276
   vertex -9.24 13.425 2.366
  endloop
 endfacet
  facet normal 0 0 0
    outer loop
   vertex -9.24 13.4 2.006
   vertex -9.24 13.425 2.096
   vertex -9.24 13.425 2.006
  endloop
 endfacet
  facet normal 0 0 0
    outer loop
   vertex -9.24 13.425 2.096
   vertex -9.24 13.4 2.186
   vertex -9.24 13.425 2.186
  endloop
 endfacet
  facet normal 0 0 0
    outer loop
   vertex -9.24 13.4 2.006
   vertex -9.24 13.4 2.186
   vertex -9.24 13.425 2.096
  endloop
 endfacet
  facet normal 0 0 0
    outer loop
   vertex -9.24 13.725 2.186
   vertex -9.24 13.725 2.276
   vertex -9.24 13.75 2.186
  endloop
 endfacet
  facet normal 0 0 0
    outer loop
   vertex -9.24 13.725 2.276
   vertex -9.24 13.725 2.366
   vertex -9.24 13.75 2.366
  endloop
 endfacet
  facet normal 0 0 0
    outer loop
   vertex -9.24 13.75 2.186
   vertex -9.24 13.725 2.276
   vertex -9.24 13.75 2.366
  endloop
 endfacet
  facet normal 0 0 0
    outer loop
   vertex -9.24 13.725 2.006
   vertex -9.24 13.75 2.096
   vertex -9.24 13.75 2.006
  endloop
 endfacet
  facet normal 0 0 0
    outer loop
   vertex -9.24 13.75 2.096
   vertex -9.24 13.725 2.186
   vertex -9.24 13.75 2.186
  endloop
 endfacet
  facet normal 0 0 0
    outer loop
   vertex -9.24 13.725 2.006
   vertex -9.24 13.725 2.186
   vertex -9.24 13.75 2.096
  endloop
 endfacet
  facet normal 0 0 0
    outer loop
   vertex -8.82 13.75 2.186
   vertex -8.82 13.75 2.276
   vertex -8.82 13.725 2.186
  endloop
 endfacet
  facet normal 0 0 0
    outer loop
   vertex -8.82 13.75 2.276
   vertex -8.82 13.75 2.366
   vertex -8.82 13.725 2.366
  endloop
 endfacet
  facet normal 0 0 0
    outer loop
   vertex -8.82 13.725 2.186
   vertex -8.82 13.75 2.276
   vertex -8.82 13.725 2.366
  endloop
 endfacet
  facet normal 0 0 0
    outer loop
   vertex -8.82 13.75 2.006
   vertex -8.82 13.725 2.096
   vertex -8.82 13.725 2.006
  endloop
 endfacet
  facet normal 0 0 0
    outer loop
   vertex -8.82 13.725 2.096
   vertex -8.82 13.75 2.186
   vertex -8.82 13.725 2.186
  endloop
 endfacet
  facet normal 0 0 0
    outer loop
   vertex -8.82 13.75 2.006
   vertex -8.82 13.75 2.186
   vertex -8.82 13.725 2.096
  endloop
 endfacet
  facet normal 0 0 0
    outer loop
   vertex -8.82 13.425 2.186
   vertex -8.82 13.425 2.276
   vertex -8.82 13.4 2.186
  endloop
 endfacet
  facet normal 0 0 0
    outer loop
   vertex -8.82 13.425 2.276
   vertex -8.82 13.425 2.366
   vertex -8.82 13.4 2.366
  endloop
 endfacet
  facet normal 0 0 0
    outer loop
   vertex -8.82 13.4 2.186
   vertex -8.82 13.425 2.276
   vertex -8.82 13.4 2.366
  endloop
 endfacet
  facet normal 0 0 0
    outer loop
   vertex -8.82 13.425 2.006
   vertex -8.82 13.4 2.096
   vertex -8.82 13.4 2.006
  endloop
 endfacet
  facet normal 0 0 0
    outer loop
   vertex -8.82 13.4 2.096
   vertex -8.82 13.425 2.186
   vertex -8.82 13.4 2.186
  endloop
 endfacet
  facet normal 0 0 0
    outer loop
   vertex -8.82 13.425 2.006
   vertex -8.82 13.425 2.186
   vertex -8.82 13.4 2.096
  endloop
 endfacet
  facet normal 0 0 0
    outer loop
   vertex -6.44 13.4 2.186
   vertex -6.44 13.4 2.276
   vertex -6.44 13.425 2.186
  endloop
 endfacet
  facet normal 0 0 0
    outer loop
   vertex -6.44 13.4 2.276
   vertex -6.44 13.4 2.366
   vertex -6.44 13.425 2.366
  endloop
 endfacet
  facet normal 0 0 0
    outer loop
   vertex -6.44 13.425 2.186
   vertex -6.44 13.4 2.276
   vertex -6.44 13.425 2.366
  endloop
 endfacet
  facet normal 0 0 0
    outer loop
   vertex -6.44 13.4 2.006
   vertex -6.44 13.425 2.096
   vertex -6.44 13.425 2.006
  endloop
 endfacet
  facet normal 0 0 0
    outer loop
   vertex -6.44 13.425 2.096
   vertex -6.44 13.4 2.186
   vertex -6.44 13.425 2.186
  endloop
 endfacet
  facet normal 0 0 0
    outer loop
   vertex -6.44 13.4 2.006
   vertex -6.44 13.4 2.186
   vertex -6.44 13.425 2.096
  endloop
 endfacet
  facet normal 0 0 0
    outer loop
   vertex -6.44 13.725 2.186
   vertex -6.44 13.725 2.276
   vertex -6.44 13.75 2.186
  endloop
 endfacet
  facet normal 0 0 0
    outer loop
   vertex -6.44 13.725 2.276
   vertex -6.44 13.725 2.366
   vertex -6.44 13.75 2.366
  endloop
 endfacet
  facet normal 0 0 0
    outer loop
   vertex -6.44 13.75 2.186
   vertex -6.44 13.725 2.276
   vertex -6.44 13.75 2.366
  endloop
 endfacet
  facet normal 0 0 0
    outer loop
   vertex -6.44 13.725 2.006
   vertex -6.44 13.75 2.096
   vertex -6.44 13.75 2.006
  endloop
 endfacet
  facet normal 0 0 0
    outer loop
   vertex -6.44 13.75 2.096
   vertex -6.44 13.725 2.186
   vertex -6.44 13.75 2.186
  endloop
 endfacet
  facet normal 0 0 0
    outer loop
   vertex -6.44 13.725 2.006
   vertex -6.44 13.725 2.186
   vertex -6.44 13.75 2.096
  endloop
 endfacet
  facet normal 0 0 0
    outer loop
   vertex -7.63 13.4 2.186
   vertex -7.63 13.4 2.276
   vertex -7.63 13.425 2.186
  endloop
 endfacet
  facet normal 0 0 0
    outer loop
   vertex -7.63 13.4 2.276
   vertex -7.63 13.4 2.366
   vertex -7.63 13.425 2.366
  endloop
 endfacet
  facet normal 0 0 0
    outer loop
   vertex -7.63 13.425 2.186
   vertex -7.63 13.4 2.276
   vertex -7.63 13.425 2.366
  endloop
 endfacet
  facet normal 0 0 0
    outer loop
   vertex -7.63 13.4 2.006
   vertex -7.63 13.425 2.096
   vertex -7.63 13.425 2.006
  endloop
 endfacet
  facet normal 0 0 0
    outer loop
   vertex -7.63 13.425 2.096
   vertex -7.63 13.4 2.186
   vertex -7.63 13.425 2.186
  endloop
 endfacet
  facet normal 0 0 0
    outer loop
   vertex -7.63 13.4 2.006
   vertex -7.63 13.4 2.186
   vertex -7.63 13.425 2.096
  endloop
 endfacet
  facet normal 0 0 0
    outer loop
   vertex -7.63 13.725 2.186
   vertex -7.63 13.725 2.276
   vertex -7.63 13.75 2.186
  endloop
 endfacet
  facet normal 0 0 0
    outer loop
   vertex -7.63 13.725 2.276
   vertex -7.63 13.725 2.366
   vertex -7.63 13.75 2.366
  endloop
 endfacet
  facet normal 0 0 0
    outer loop
   vertex -7.63 13.75 2.186
   vertex -7.63 13.725 2.276
   vertex -7.63 13.75 2.366
  endloop
 endfacet
  facet normal 0 0 0
    outer loop
   vertex -7.63 13.725 2.006
   vertex -7.63 13.75 2.096
   vertex -7.63 13.75 2.006
  endloop
 endfacet
  facet normal 0 0 0
    outer loop
   vertex -7.63 13.75 2.096
   vertex -7.63 13.725 2.186
   vertex -7.63 13.75 2.186
  endloop
 endfacet
  facet normal 0 0 0
    outer loop
   vertex -7.63 13.725 2.006
   vertex -7.63 13.725 2.186
   vertex -7.63 13.75 2.096
  endloop
 endfacet
  facet normal 0 0 0
    outer loop
   vertex -7.21 13.75 2.186
   vertex -7.21 13.75 2.276
   vertex -7.21 13.725 2.186
  endloop
 endfacet
  facet normal 0 0 0
    outer loop
   vertex -7.21 13.75 2.276
   vertex -7.21 13.75 2.366
   vertex -7.21 13.725 2.366
  endloop
 endfacet
  facet normal 0 0 0
    outer loop
   vertex -7.21 13.725 2.186
   vertex -7.21 13.75 2.276
   vertex -7.21 13.725 2.366
  endloop
 endfacet
  facet normal 0 0 0
    outer loop
   vertex -7.21 13.75 2.006
   vertex -7.21 13.725 2.096
   vertex -7.21 13.725 2.006
  endloop
 endfacet
  facet normal 0 0 0
    outer loop
   vertex -7.21 13.725 2.096
   vertex -7.21 13.75 2.186
   vertex -7.21 13.725 2.186
  endloop
 endfacet
  facet normal 0 0 0
    outer loop
   vertex -7.21 13.75 2.006
   vertex -7.21 13.75 2.186
   vertex -7.21 13.725 2.096
  endloop
 endfacet
  facet normal 0 0 0
    outer loop
   vertex -7.21 13.425 2.186
   vertex -7.21 13.425 2.276
   vertex -7.21 13.4 2.186
  endloop
 endfacet
  facet normal 0 0 0
    outer loop
   vertex -7.21 13.425 2.276
   vertex -7.21 13.425 2.366
   vertex -7.21 13.4 2.366
  endloop
 endfacet
  facet normal 0 0 0
    outer loop
   vertex -7.21 13.4 2.186
   vertex -7.21 13.425 2.276
   vertex -7.21 13.4 2.366
  endloop
 endfacet
  facet normal 0 0 0
    outer loop
   vertex -7.21 13.425 2.006
   vertex -7.21 13.4 2.096
   vertex -7.21 13.4 2.006
  endloop
 endfacet
  facet normal 0 0 0
    outer loop
   vertex -7.21 13.4 2.096
   vertex -7.21 13.425 2.186
   vertex -7.21 13.4 2.186
  endloop
 endfacet
  facet normal 0 0 0
    outer loop
   vertex -7.21 13.425 2.006
   vertex -7.21 13.425 2.186
   vertex -7.21 13.4 2.096
  endloop
 endfacet
  facet normal 0 0 0
    outer loop
   vertex -9.24 13.75 2.006
   vertex -9.24 13.75 2.366
   vertex -8.82 13.75 2.366
  endloop
 endfacet
  facet normal 0 0 0
    outer loop
   vertex -9.24 13.75 2.006
   vertex -8.82 13.75 2.366
   vertex -8.82 13.75 2.006
  endloop
 endfacet
  facet normal 0 0 0
    outer loop
   vertex -7.63 13.75 2.006
   vertex -7.63 13.75 2.366
   vertex -7.21 13.75 2.366
  endloop
 endfacet
  facet normal 0 0 0
    outer loop
   vertex -7.63 13.75 2.006
   vertex -7.21 13.75 2.366
   vertex -7.21 13.75 2.006
  endloop
 endfacet
  facet normal 0 0 0
    outer loop
   vertex -6.44 13.75 2.006
   vertex -6.44 13.75 2.366
   vertex -6.02 13.75 2.366
  endloop
 endfacet
  facet normal 0 0 0
    outer loop
   vertex -6.44 13.75 2.006
   vertex -6.02 13.75 2.366
   vertex -6.02 13.75 2.006
  endloop
 endfacet
  facet normal 0 0 0
    outer loop
   vertex -6.02 13.75 2.006
   vertex -6.02 13.75 2.366
   vertex -6.02 13.4 2.366
  endloop
 endfacet
  facet normal 0 0 0
    outer loop
   vertex -6.02 13.75 2.006
   vertex -6.02 13.4 2.366
   vertex -6.02 13.4 2.006
  endloop
 endfacet
endsolid stl
